<?xml version="1.0" standalone="no"?>
<!DOCTYPE svg PUBLIC "-//W3C//DTD SVG 20010904//EN"
 "http://www.w3.org/TR/2001/REC-SVG-20010904/DTD/svg10.dtd">
<svg version="1.0" xmlns="http://www.w3.org/2000/svg"
 width="289.000000pt" height="281.000000pt" viewBox="0 0 289.000000 281.000000"
 preserveAspectRatio="xMidYMid meet">

<g transform="translate(0.000000,281.000000) scale(0.100000,-0.100000)"
fill="#000000" stroke="none">
<path d="M0 2019 l0 -792 223 4 222 4 3 -25 3 -25 -108 0 c-59 0 -139 -3 -178
-7 -38 -4 -91 -7 -117 -8 l-48 0 0 -46 0 -47 41 6 c23 3 46 11 50 19 7 10 9
10 9 1 0 -28 19 -11 26 22 9 49 24 44 24 -7 0 -24 3 -128 7 -231 5 -156 4
-190 -8 -198 -8 -5 -44 -9 -81 -9 l-68 0 0 -66 c0 -49 4 -70 16 -78 10 -8 13
-18 8 -31 -7 -18 -8 -18 -15 1 -6 15 -8 12 -8 -14 l-1 -33 63 2 c34 1 56 4 49
6 -6 3 -12 12 -12 21 0 13 -3 12 -14 -4 -16 -21 -32 -12 -38 21 -2 17 3 20 30
20 24 0 32 4 30 15 -2 9 -12 14 -26 12 -12 -2 -22 1 -22 7 0 20 19 20 63 1 44
-19 45 -22 43 -60 -2 -22 2 -44 9 -50 7 -6 12 -67 14 -177 1 -92 4 -170 6
-174 3 -3 15 -6 27 -5 16 1 22 7 20 19 -2 10 4 17 14 17 10 0 14 5 10 15 -3 8
-1 15 4 15 6 0 10 -5 10 -11 0 -8 4 -8 14 0 8 6 38 14 67 17 l54 6 -56 -29
c-55 -29 -171 -116 -177 -134 -2 -5 233 -9 555 -9 l558 1 -30 25 c-59 49 -101
93 -129 132 -27 39 -28 48 -36 209 -5 92 -14 192 -21 221 -6 29 -8 56 -4 60 4
4 34 -24 68 -61 34 -37 70 -67 80 -67 20 0 23 -25 4 -34 -6 -3 -1 -3 13 0 14
4 22 3 18 -1 -4 -4 5 -18 19 -31 26 -24 26 -25 7 -39 -18 -14 -18 -14 3 -15
12 0 25 -4 28 -10 3 -5 16 -11 28 -11 17 -1 18 -2 5 -6 -26 -7 -22 -22 8 -33
14 -6 28 -19 31 -30 7 -25 19 -26 26 -1 2 11 15 21 28 24 22 4 22 4 -3 6 -16
0 -28 6 -28 12 0 8 13 9 40 5 25 -4 40 -2 40 4 0 5 5 10 10 10 6 0 10 -9 10
-20 0 -27 13 -25 71 7 28 16 48 34 46 43 -1 8 3 15 8 15 6 0 16 4 23 9 7 4 16
6 18 3 3 -3 17 1 31 8 17 9 32 30 43 62 9 26 21 48 26 48 14 0 47 37 61 68 7
15 18 27 25 27 9 0 9 3 1 11 -9 9 -6 20 12 44 35 45 75 123 75 145 0 10 4 21
9 25 15 8 32 -31 26 -57 -3 -13 -1 -70 5 -128 6 -58 13 -128 16 -156 4 -44 0
-61 -31 -126 -44 -90 -140 -214 -186 -240 -19 -10 -54 -32 -79 -48 -25 -16
-69 -43 -97 -60 -29 -17 -55 -35 -58 -41 -4 -5 249 -9 664 -9 l671 0 0 88 c0
103 -4 109 -89 141 -30 11 -57 25 -61 31 -4 6 -86 44 -183 85 -97 40 -192 86
-212 102 l-35 28 6 705 c4 388 10 709 15 714 5 5 11 7 15 4 3 -4 5 -177 5
-387 -1 -240 3 -382 9 -386 6 -3 10 1 10 10 0 10 5 13 11 9 8 -5 10 1 5 19 -4
19 -2 27 11 31 29 9 208 10 221 2 7 -4 12 -20 12 -36 0 -17 7 -34 18 -40 12
-8 13 -13 5 -16 -19 -8 -16 -32 4 -30 10 0 18 -4 18 -11 0 -6 4 -15 9 -20 5
-5 6 7 1 27 -4 19 -8 42 -8 51 -1 9 -7 15 -14 12 -8 -3 -13 3 -13 15 0 16 5
19 21 15 18 -5 20 -3 14 16 -5 17 -2 21 14 21 22 0 39 19 19 22 -7 1 -89 2
-183 2 l-170 1 4 285 c4 329 5 330 78 330 25 0 42 -4 38 -9 -3 -6 11 -17 30
-27 20 -9 37 -15 38 -13 1 2 7 13 13 23 6 11 17 21 25 24 9 2 8 -1 -3 -11 -24
-19 -23 -30 0 -18 13 7 22 7 30 -1 8 -8 9 -5 5 10 -4 17 1 24 18 31 16 6 25 5
28 -3 5 -13 27 -36 35 -36 3 0 3 7 0 15 -4 8 -1 15 5 15 6 0 10 -3 10 -7 -5
-31 5 -32 21 -3 l19 35 -5 -30 c-3 -16 2 -50 10 -73 12 -33 14 -65 10 -123 -4
-55 -3 -79 5 -79 13 0 14 10 12 62 -2 31 1 37 14 32 15 -6 15 -3 0 32 -33 78
-35 84 -23 84 7 0 4 6 -6 13 -15 11 -17 19 -9 43 9 27 14 29 66 32 44 2 57 7
57 19 0 12 -7 14 -27 10 -16 -2 -37 -1 -48 3 -11 4 -24 4 -30 0 -16 -12 -201
-20 -213 -8 -5 5 -55 9 -111 9 l-101 0 0 100 0 99 -34 0 c-47 0 -62 20 -45 60
8 16 20 31 26 31 7 1 18 3 23 4 6 1 15 3 20 4 6 0 10 40 10 94 l0 94 143 6
c78 4 176 7 218 7 42 0 97 3 123 6 l46 7 0 204 0 204 -843 -3 c-666 -2 -847
-6 -859 -16 -13 -10 -17 -10 -22 3 -5 13 -56 15 -405 15 -310 0 -400 -3 -404
-12 -4 -10 -6 -10 -6 0 -1 16 -101 17 -101 1 0 -8 -5 -7 -16 2 -14 11 -18 10
-30 -6 -12 -17 -14 -17 -14 -2 0 10 -8 17 -20 17 -14 0 -20 -7 -20 -24 0 -17
-7 -25 -25 -28 -30 -6 -35 -2 -35 29 0 21 -5 23 -45 23 l-45 0 0 -791z m323
774 c-7 -2 -19 -2 -25 0 -7 3 -2 5 12 5 14 0 19 -2 13 -5z m1913 -224 c12 -20
-16 -34 -67 -34 -48 0 -75 16 -63 37 8 12 122 10 130 -3z m-146 -9 c0 -5 -4
-10 -9 -10 -6 0 -13 5 -16 10 -3 6 1 10 9 10 9 0 16 -4 16 -10z m-175 -10 c4
-6 -8 -10 -29 -10 -20 0 -36 5 -36 10 0 6 13 10 29 10 17 0 33 -4 36 -10z m52
4 c-3 -3 -12 -4 -19 -1 -8 3 -5 6 6 6 11 1 17 -2 13 -5z m-170 -10 c-3 -3 -12
-4 -19 -1 -8 3 -5 6 6 6 11 1 17 -2 13 -5z m-379 -11 c-16 -2 -40 -2 -55 0
-16 2 -3 4 27 4 30 0 43 -2 28 -4z m796 -453 c15 -31 9 -39 -12 -18 -11 11
-17 48 -8 48 3 0 11 -13 20 -30z m-541 1 l109 -9 39 -43 c53 -60 71 -102 73
-169 2 -52 6 -62 43 -104 33 -37 43 -57 48 -99 4 -29 11 -69 16 -90 14 -52 12
-195 -2 -268 -13 -67 -46 -124 -71 -124 -9 0 -20 -3 -24 -7 -4 -4 -16 -5 -28
-2 -16 4 -26 -3 -39 -26 -10 -16 -25 -30 -33 -30 -8 0 -14 -9 -14 -20 0 -28
-20 -25 -21 3 -1 20 -2 20 -6 2 -8 -32 -20 -39 -32 -17 -14 26 -76 62 -105 62
-13 0 -34 8 -47 18 -22 19 -22 19 -3 45 14 19 25 24 42 20 12 -3 22 -2 22 1 0
11 -45 76 -52 76 -4 0 -5 -13 -2 -30 6 -26 3 -30 -14 -30 -12 0 -23 4 -26 9
-3 4 -29 4 -58 -2 -52 -10 -73 -10 -152 -5 -28 2 -42 -2 -50 -15 -9 -15 -7
-21 8 -33 25 -18 36 -18 36 1 0 9 10 15 26 15 31 0 23 -17 -14 -32 -109 -43
-183 -41 -138 4 19 19 49 79 42 85 -15 16 -113 -82 -145 -146 l-21 -40 26 -65
c14 -36 24 -75 22 -87 -4 -27 -28 -38 -28 -13 0 10 -7 25 -15 34 -8 9 -21 40
-27 68 l-13 51 -35 -5 c-37 -6 -69 14 -56 35 7 11 48 2 58 -13 5 -7 8 -5 8 5
0 9 -7 20 -16 23 -8 3 -12 11 -8 17 4 8 0 8 -15 0 -24 -13 -41 -7 -41 15 0 8
-4 14 -10 14 -5 0 -6 -7 -3 -17 4 -10 2 -14 -4 -10 -6 4 -21 49 -33 100 -37
155 -24 333 32 444 28 56 30 68 24 122 -11 94 15 166 69 197 45 25 223 62 353
73 51 5 95 11 99 15 8 8 72 7 206 -3z m617 -61 c0 -11 -2 -20 -4 -20 -2 0 -6
9 -9 20 -3 11 -1 20 4 20 5 0 9 -9 9 -20z m-1721 -64 c25 -16 10 -34 -35 -41
-51 -7 -70 5 -54 35 9 17 65 21 89 6z m135 -111 c4 -19 4 -86 0 -148 l-7 -114
-30 -11 c-23 -9 -33 -9 -38 0 -6 9 -6 243 0 296 0 7 15 12 35 12 31 0 34 -3
40 -35z m-524 -72 c17 -12 25 -13 28 -5 2 7 17 12 33 12 l29 0 0 -104 c0 -57
-3 -111 -6 -120 -7 -18 -64 -23 -64 -6 0 6 -7 10 -15 10 -8 0 -15 -5 -15 -12
0 -6 -3 -8 -7 -5 -3 4 -12 2 -19 -4 -18 -15 -57 -2 -93 31 -28 26 -31 35 -31
85 0 42 6 65 21 87 35 48 95 62 139 31z m219 0 c9 -17 10 -17 28 0 26 23 85
22 114 -2 21 -17 24 -30 27 -98 3 -62 1 -83 -12 -95 -8 -9 -12 -18 -9 -22 3
-3 -2 -8 -11 -12 -31 -12 -46 14 -46 82 0 44 -5 67 -16 78 -18 19 -20 19 -45
6 -15 -9 -19 -22 -19 -63 0 -66 -18 -107 -46 -107 -12 0 -25 7 -28 16 -11 30
-7 209 6 222 17 17 45 15 57 -5z m406 -135 c9 -36 -2 -78 -20 -78 -20 0 -52
54 -60 101 -7 40 3 68 39 107 l21 24 7 -64 c3 -34 9 -75 13 -90z m1455 -53 c0
-12 4 -25 9 -30 12 -12 -5 -34 -38 -54 -22 -12 -26 -11 -37 4 -8 10 -11 22 -8
27 3 5 -1 15 -10 21 -10 7 -14 20 -10 33 5 17 13 21 50 20 37 -1 44 -4 44 -21z
m-166 -27 c-5 -27 -4 -39 3 -35 32 20 30 -97 -2 -192 -19 -54 -25 -91 -23
-136 3 -59 -10 -95 -33 -95 -11 0 1 422 12 435 5 5 9 19 9 30 0 25 8 35 27 35
10 0 12 -10 7 -42z m-1303 -71 c-8 -8 -11 -7 -11 4 0 20 13 34 18 19 3 -7 -1
-17 -7 -23z m36 -59 c6 -7 13 -51 17 -98 19 -246 19 -253 8 -246 -7 4 -12 29
-12 56 0 27 -4 51 -9 54 -5 4 -14 39 -21 79 -6 39 -16 88 -21 108 -5 20 -9 41
-9 48 0 15 35 14 47 -1z m663 -228 c0 -5 -2 -10 -4 -10 -3 0 -8 5 -11 10 -3 6
-1 10 4 10 6 0 11 -4 11 -10z m38 -121 c23 -11 42 -20 42 -22 0 -1 -61 -1
-136 1 l-137 3 34 17 c48 25 143 25 197 1z m-248 -19 c0 -5 -5 -10 -11 -10 -5
0 -7 5 -4 10 3 6 8 10 11 10 2 0 4 -4 4 -10z m880 -17 c0 -15 2 -14 15 3 13
17 14 14 13 -36 0 -47 -2 -50 -7 -20 -5 28 -8 31 -14 17 -4 -10 -7 -27 -7 -37
0 -28 -21 -36 -37 -15 -18 25 -16 65 4 87 20 23 33 23 33 1z m-380 -36 c0 -21
-10 -44 -30 -66 -17 -18 -30 -39 -30 -45 0 -18 -20 18 -20 37 0 9 14 31 30 49
17 17 30 40 30 50 0 11 5 16 10 13 6 -3 10 -21 10 -38z m-282 -11 c17 -17 8
-36 -19 -36 -10 0 -19 -5 -19 -11 0 -12 -124 -8 -152 5 -13 6 -18 4 -18 -7 0
-8 -6 -17 -12 -20 -9 -3 -6 -10 9 -21 12 -9 30 -32 38 -51 14 -28 25 -36 66
-46 27 -7 49 -16 49 -20 0 -4 -13 -22 -29 -40 l-29 -31 -15 28 c-14 27 -15 27
-21 6 -10 -29 -17 -28 -39 6 -19 27 -90 67 -114 63 -9 -1 -13 12 -14 36 -2 74
3 128 11 137 13 13 60 -2 60 -19 0 -8 7 -15 15 -15 8 0 15 7 15 15 0 8 1 15 3
15 1 0 20 7 42 14 48 17 153 12 173 -8z m152 -38 c0 -36 -40 -106 -77 -137
-33 -27 -113 -48 -113 -29 0 5 5 8 11 8 6 0 9 7 5 15 -3 8 6 28 20 44 13 16
31 45 39 65 9 20 21 36 28 36 7 0 20 9 30 20 14 17 21 18 37 10 11 -6 20 -20
20 -32z m-85 22 c3 -5 1 -10 -4 -10 -6 0 -11 5 -11 10 0 6 2 10 4 10 3 0 8 -4
11 -10z m-1171 -16 c33 -33 9 -47 -32 -18 -12 8 -22 19 -22 25 0 15 37 10 54
-7z m55 -96 c-1 -50 -3 -56 -8 -28 -5 29 -10 35 -31 35 -14 1 -29 -4 -33 -10
-4 -5 -7 1 -5 15 2 20 9 25 32 25 16 0 31 6 33 13 9 26 13 10 12 -50z m1721
25 c0 -5 -9 -19 -19 -32 -13 -17 -24 -22 -37 -17 -16 6 -16 9 7 31 23 23 49
33 49 18z m-120 -33 c0 -5 -2 -10 -4 -10 -3 0 -8 5 -11 10 -3 6 -1 10 4 10 6
0 11 -4 11 -10z m2 -118 c-2 -18 -8 -32 -13 -32 -15 0 -23 30 -11 42 7 7 7 16
-1 30 -10 15 -9 20 3 28 19 12 29 -21 22 -68z m-1605 -24 c-3 -7 -5 -2 -5 12
0 14 2 19 5 13 2 -7 2 -19 0 -25z m10 -150 l2 -108 -140 0 -139 0 0 35 c0 19
3 36 8 36 4 1 60 3 125 4 118 3 180 15 76 15 -78 0 -159 11 -153 21 3 5 -2 6
-10 3 -10 -4 -16 -1 -16 8 0 17 -35 38 -66 40 -28 3 -29 37 -1 43 12 2 31 6
42 9 11 2 76 3 145 2 l125 -1 2 -107z m-417 82 c0 -5 -8 -10 -17 -10 -15 0
-16 2 -3 10 19 12 20 12 20 0z m806 -19 c-10 -16 -36 -13 -36 3 0 17 21 27 34
16 4 -5 5 -13 2 -19z m64 -21 c0 -5 -7 -10 -15 -10 -8 0 -15 5 -15 10 0 6 7
10 15 10 8 0 15 -4 15 -10z m-710 -40 c0 -5 -2 -10 -4 -10 -3 0 -8 5 -11 10
-3 6 -1 10 4 10 6 0 11 -4 11 -10z m251 -393 c-6 -6 -32 -3 -71 6 -101 26
-122 57 -39 57 l52 0 -5 38 c-4 23 -1 42 7 49 18 17 25 6 26 -41 1 -51 12 -85
23 -68 4 7 5 57 1 112 -4 55 -3 105 2 112 4 7 9 -46 11 -121 1 -75 -2 -139 -7
-144z m1019 253 c0 -5 -2 -10 -4 -10 -3 0 -8 5 -11 10 -3 6 -1 10 4 10 6 0 11
-4 11 -10z m-1200 -4 c0 -3 -4 -8 -10 -11 -5 -3 -10 -1 -10 4 0 6 5 11 10 11
6 0 10 -2 10 -4z m134 -5 c4 -5 2 -12 -4 -16 -12 -8 -81 5 -76 14 7 11 74 12
80 2z m987 -8 c13 -16 12 -17 -3 -4 -10 7 -18 15 -18 17 0 8 8 3 21 -13z m46
-35 c-3 -8 -6 -5 -6 6 -1 11 2 17 5 13 3 -3 4 -12 1 -19z"/>
<path d="M1759 1715 c-3 -2 -34 -7 -69 -10 -86 -7 -119 -14 -155 -33 -16 -8
-37 -18 -45 -22 -8 -4 -14 -16 -13 -26 5 -37 15 -89 20 -104 4 -8 5 -21 4 -29
-2 -10 5 -12 23 -7 18 4 25 3 24 -6 -2 -7 8 -13 22 -14 14 -2 59 -8 101 -15
75 -12 109 -9 109 11 0 5 -11 10 -24 10 -25 0 -48 19 -24 21 7 0 40 1 73 2 53
2 60 5 63 23 2 12 -7 31 -22 45 -26 24 -34 49 -16 49 6 0 10 -4 10 -9 0 -5 8
-7 18 -4 17 4 22 28 14 65 -2 9 -85 58 -99 58 -5 0 -12 -2 -14 -5z m-129 -185
c0 -11 -4 -20 -10 -20 -5 0 -10 9 -10 20 0 11 5 20 10 20 6 0 10 -9 10 -20z"/>
<path d="M993 1638 c-21 -18 -41 -37 -44 -41 -11 -16 7 -72 26 -82 11 -5 20
-17 20 -25 0 -21 45 -41 80 -35 66 12 105 13 105 4 0 -5 -12 -10 -27 -10 -16
-1 -32 -2 -38 -4 -5 -1 -16 -3 -23 -3 -7 -1 -10 -6 -7 -12 10 -16 104 -12 142
7 19 9 39 27 44 40 4 12 15 23 23 23 7 0 16 7 20 15 3 8 15 15 26 15 17 0 20
6 20 49 0 43 -18 80 -32 66 -2 -3 -27 2 -54 10 -29 9 -89 15 -146 15 -95 0
-98 -1 -135 -32z"/>
<path d="M104 1694 c-10 -38 7 -78 34 -82 48 -7 72 43 40 83 -27 34 -65 34
-74 -1z"/>
<path d="M120 1550 c0 -5 5 -10 10 -10 6 0 10 5 10 10 0 6 -4 10 -10 10 -5 0
-10 -4 -10 -10z"/>
<path d="M2220 1539 c0 -5 5 -7 10 -4 6 3 10 8 10 11 0 2 -4 4 -10 4 -5 0 -10
-5 -10 -11z"/>
<path d="M2680 2255 c0 -19 5 -35 10 -35 6 0 10 -7 10 -15 0 -8 3 -15 6 -15
11 0 33 28 27 34 -4 3 -2 6 4 6 5 0 10 7 10 15 0 11 -8 15 -26 13 -20 -2 -25
1 -23 15 2 9 -2 17 -8 17 -5 0 -10 -16 -10 -35z"/>
<path d="M2818 2213 l-56 -4 -11 -61 c-6 -34 -9 -63 -7 -66 2 -2 18 4 35 12
16 9 39 16 49 16 22 0 52 -30 52 -52 0 -25 -40 -68 -63 -68 -29 1 -82 50 -91
84 -4 15 -13 26 -23 26 -15 0 -15 -1 0 -18 10 -10 17 -26 17 -35 0 -22 48 -77
77 -88 26 -10 59 2 80 30 7 9 13 39 13 68 0 61 -18 78 -77 71 -33 -4 -34 -3
-31 26 3 30 5 31 56 34 37 2 52 7 52 18 0 7 -3 13 -7 12 -5 -1 -33 -3 -65 -5z"/>
<path d="M2417 2204 c-13 -13 -7 -23 16 -26 22 -3 22 -5 18 -115 -3 -99 -1
-113 13 -113 9 0 16 3 16 8 0 4 1 61 3 127 l2 120 -30 3 c-17 2 -34 0 -38 -4z"/>
<path d="M2617 2181 c-9 -16 -35 -53 -57 -82 -22 -29 -40 -58 -40 -64 0 -6 24
-11 56 -12 31 -1 58 -4 61 -7 9 -9 -14 -61 -26 -59 -6 2 -11 -2 -11 -8 0 -5
-4 -7 -10 -4 -12 8 -13 -5 -1 -24 7 -11 11 -9 20 8 7 11 21 21 32 21 17 0 19
4 13 35 -5 31 -4 35 20 41 31 7 35 24 6 24 -18 0 -20 7 -20 80 0 88 -12 103
-43 51z m18 -83 c-8 -47 -18 -58 -52 -58 -30 0 -29 17 2 63 36 53 59 50 50 -5z"/>
<path d="M2367 2183 c-10 -9 -8 -55 2 -71 6 -10 10 -10 19 1 9 11 9 22 -1 46
-7 17 -16 28 -20 24z"/>
<path d="M2540 2155 c0 -8 2 -15 4 -15 2 0 6 7 10 15 3 8 1 15 -4 15 -6 0 -10
-7 -10 -15z"/>
<path d="M2692 1956 c-12 -24 -22 -45 -22 -48 0 -4 50 -3 79 1 2 1 -3 9 -11
19 -8 9 -14 27 -13 40 3 38 -11 33 -33 -12z"/>
<path d="M2505 1949 c-9 -38 1 -50 14 -18 l9 24 10 -25 11 -25 0 25 c1 15 -7
30 -18 37 -17 11 -20 9 -26 -18z"/>
<path d="M2636 1825 c4 -8 13 -15 21 -15 13 0 13 3 3 15 -7 8 -16 15 -21 15
-5 0 -6 -7 -3 -15z"/>
<path d="M2637 1692 c-52 -118 -56 -133 -29 -109 10 10 22 14 26 10 9 -9 26
16 26 37 -1 11 -5 10 -17 -5 l-16 -20 8 20 c4 11 10 29 13 40 2 11 11 28 19
37 13 15 32 98 22 98 -2 0 -25 -49 -52 -108z"/>
<path d="M2740 1747 c0 -15 -11 -49 -24 -75 -13 -26 -27 -58 -31 -72 -8 -25
-8 -25 14 -6 11 11 21 14 21 8 0 -7 9 -12 20 -12 17 0 20 7 20 43 l0 42 -20
-25 c-18 -24 -18 -22 2 39 15 46 17 66 9 74 -8 8 -11 4 -11 -16z"/>
<path d="M2608 1742 c-25 -15 -28 -23 -28 -67 l0 -50 31 59 c16 32 29 62 27
67 -2 4 -15 0 -30 -9z"/>
<path d="M2692 1725 c-14 -29 2 -34 18 -6 12 24 13 31 2 31 -5 0 -14 -11 -20
-25z"/>
<path d="M2400 1694 c-13 -34 -14 -34 15 -21 14 7 25 20 25 30 0 26 -29 20
-40 -9z"/>
<path d="M2860 1681 c0 -12 5 -21 10 -21 6 0 10 6 10 14 0 8 -4 18 -10 21 -5
3 -10 -3 -10 -14z"/>
<path d="M2500 1653 c0 -10 8 -39 17 -66 14 -39 21 -47 40 -44 30 4 37 12 11
14 -26 2 -25 2 -29 38 -2 17 -8 33 -14 38 -6 4 -5 10 3 16 11 6 10 10 -3 15
-24 9 -25 8 -25 -11z"/>
<path d="M2858 1610 c-5 -33 6 -28 17 8 3 12 2 22 -3 22 -5 0 -12 -14 -14 -30z"/>
<path d="M2430 1610 c0 -5 5 -10 10 -10 6 0 10 5 10 10 0 6 -4 10 -10 10 -5 0
-10 -4 -10 -10z"/>
<path d="M2855 1500 c-3 -5 -1 -10 4 -10 6 0 11 5 11 10 0 6 -2 10 -4 10 -3 0
-8 -4 -11 -10z"/>
<path d="M2851 1463 c-1 -12 -7 -24 -13 -26 -10 -4 -10 -6 0 -6 15 -1 26 23
19 41 -3 7 -6 3 -6 -9z"/>
<path d="M2732 1410 c0 -14 2 -19 5 -12 2 6 2 18 0 25 -3 6 -5 1 -5 -13z"/>
<path d="M2797 1405 c-11 -16 -13 -26 -6 -30 13 -9 15 -7 23 28 8 33 6 33 -17
2z"/>
<path d="M2597 1403 c-8 -13 2 -43 14 -43 10 0 10 8 0 34 -5 12 -10 16 -14 9z"/>
<path d="M2835 1370 c-3 -6 1 -7 9 -4 18 7 21 14 7 14 -6 0 -13 -4 -16 -10z"/>
<path d="M2542 1328 c2 -24 7 -34 16 -31 6 3 12 0 12 -6 0 -6 4 -11 10 -11 12
0 2 28 -22 59 l-18 24 2 -35z"/>
<path d="M2657 1353 c-4 -3 -7 -11 -7 -17 0 -6 5 -5 12 2 6 6 9 14 7 17 -3 3
-9 2 -12 -2z"/>
<path d="M2604 1264 c-29 -13 -29 -13 10 -8 26 4 36 2 31 -5 -4 -7 5 -11 24
-11 17 0 31 5 31 11 0 6 6 9 14 6 8 -3 22 1 33 8 17 13 17 14 1 15 -10 0 -18
-5 -18 -11 0 -6 -5 -7 -12 -2 -21 12 -83 11 -114 -3z"/>
<path d="M2740 1209 c0 -5 5 -7 10 -4 6 3 10 8 10 11 0 2 -4 4 -10 4 -5 0 -10
-5 -10 -11z"/>
<path d="M2741 1164 c0 -11 3 -14 6 -6 3 7 2 16 -1 19 -3 4 -6 -2 -5 -13z"/>
<path d="M2636 1053 c-11 -11 -6 -23 9 -23 8 0 15 4 15 9 0 13 -16 22 -24 14z"/>
<path d="M2455 977 c-26 -97 -34 -149 -28 -187 4 -31 2 -37 -21 -48 -18 -8
-26 -19 -26 -37 0 -14 3 -25 6 -25 12 0 40 35 51 64 6 17 12 25 12 18 1 -7 6
-10 11 -7 6 4 8 26 4 56 -5 38 -4 49 7 49 11 0 11 2 1 8 -8 6 -10 19 -6 40 4
17 10 29 15 26 5 -3 7 -9 4 -14 -3 -5 0 -12 6 -16 8 -4 9 3 4 26 -7 30 -5 32
13 28 15 -4 19 -2 15 9 -3 8 2 20 12 27 21 15 11 40 -12 32 -8 -3 -23 -2 -33
4 -16 8 -20 2 -35 -53z"/>
<path d="M2742 970 c0 -14 2 -19 5 -12 2 6 2 18 0 25 -3 6 -5 1 -5 -13z"/>
<path d="M2633 893 c-7 -2 -13 -9 -13 -14 0 -6 8 -5 20 1 11 6 26 8 32 4 7 -4
8 -3 4 4 -7 12 -22 14 -43 5z"/>
<path d="M2742 820 c0 -14 2 -19 5 -12 2 6 2 18 0 25 -3 6 -5 1 -5 -13z"/>
<path d="M2517 792 c-4 -6 -15 -9 -25 -6 -14 5 -14 3 2 -10 21 -17 42 -8 34
15 -3 10 -6 10 -11 1z"/>
<path d="M2580 770 c0 -5 5 -10 11 -10 5 0 7 5 4 10 -3 6 -8 10 -11 10 -2 0
-4 -4 -4 -10z"/>
<path d="M2624 753 c7 -7 87 -5 95 3 2 2 -20 4 -49 4 -29 0 -50 -3 -46 -7z"/>
<path d="M2341 618 c-1 -75 3 -129 9 -133 12 -7 12 197 0 235 -5 16 -8 -23 -9
-102z"/>
<path d="M2615 588 c-6 -15 -21 -18 -91 -18 -56 0 -84 -4 -84 -11 0 -8 32 -10
113 -5 61 3 128 6 147 6 26 0 31 3 20 10 -8 5 -31 7 -52 4 -30 -5 -37 -3 -41
12 -4 18 -4 18 -12 2z"/>
<path d="M2600 516 c0 -21 17 -39 25 -26 4 7 17 9 31 6 19 -5 24 -2 24 12 0
14 -8 18 -40 19 -24 0 -40 -4 -40 -11z"/>
<path d="M2630 455 c0 -18 4 -23 15 -19 17 7 21 -21 5 -31 -18 -11 -10 -25 13
-21 16 2 21 9 19 25 -2 14 2 21 12 21 9 0 16 5 16 10 0 6 -7 10 -15 10 -8 0
-15 7 -15 15 0 9 -9 15 -25 15 -20 0 -25 -5 -25 -25z"/>
<path d="M12 355 c0 -16 2 -22 5 -12 2 9 2 23 0 30 -3 6 -5 -1 -5 -18z"/>
<path d="M4 169 c-3 -5 30 -9 72 -9 43 0 75 2 72 5 -9 10 -138 13 -144 4z"/>
</g>
</svg>
