<?xml version="1.0" encoding="UTF-8"?>
<svg version="1.1" xmlns="http://www.w3.org/2000/svg" width="970" height="975">
<path d="M0 0 C23.43 0 46.86 0 71 0 C71 135.96 71 271.92 71 412 C47.57 412 24.14 412 0 412 C0 276.04 0 140.08 0 0 Z " fill="#EE4C2A" transform="translate(487,339)"/>
<path d="M0 0 C23.43 0 46.86 0 71 0 C71 79.2 71 158.4 71 240 C47.57 240 24.14 240 0 240 C0 160.8 0 81.6 0 0 Z " fill="#EE4C2A" transform="translate(391,410)"/>
<path d="M0 0 C23.43 0 46.86 0 71 0 C71 56.43 71 112.86 71 171 C47.57 171 24.14 171 0 171 C0 114.57 0 58.14 0 0 Z " fill="#EE4C2A" transform="translate(295,479)"/>
<path d="M0 0 C23.43 0 46.86 0 71 0 C71 41.58 71 83.16 71 126 C47.57 126 24.14 126 0 126 C0 84.42 0 42.84 0 0 Z " fill="#EE4C2A" transform="translate(584,524)"/>
<path d="M0 0 C23.76 0 47.52 0 72 0 C72 25.08 72 50.16 72 76 C48.24 76 24.48 76 0 76 C0 50.92 0 25.84 0 0 Z " fill="#EE4C2A" transform="translate(199,574)"/>
<path d="M0 0 C23.43 0 46.86 0 71 0 C71 22.77 71 45.54 71 69 C47.57 69 24.14 69 0 69 C0 46.23 0 23.46 0 0 Z " fill="#EE4C2A" transform="translate(680,581)"/>
<path d="M0 0 C7.68143838 6.50142421 12.49619448 13.35376473 14.11328125 23.3828125 C15.05401105 34.85635635 12.61169881 44.50646157 5.20703125 53.36328125 C-1.63347535 60.49487324 -9.82976191 64.21221263 -19.66796875 65.05078125 C-31.2992127 65.1842819 -40.0889495 61.57683033 -48.46875 53.5390625 C-55.39859929 45.69836268 -58.12448811 35.88728796 -57.54296875 25.55078125 C-56.19026553 14.86442582 -51.75861398 7.19033182 -43.66796875 0.05078125 C-30.39151548 -8.83487008 -13.14368336 -9.60277891 0 0 Z " fill="#EE4C2A" transform="translate(545.66796875,244.94921875)"/>
<path d="M0 0 C8.33135478 5.92270891 14.28492269 13.09587017 17 23 C17.80860432 32.51520436 17.9426368 41.54018906 13 50 C12.59910156 50.70382812 12.19820313 51.40765625 11.78515625 52.1328125 C7.20426703 59.11700882 0.22544278 63.16631729 -7.3125 66.4375 C-19.3704413 68.27684698 -29.99514433 67.29015172 -40.25 60.375 C-48.80075297 53.36935229 -52.8100181 44.52324533 -54.3125 33.76171875 C-54.9101588 23.54548857 -50.91055286 13.75684824 -44.27734375 6.16015625 C-32.18796001 -5.30713227 -14.85210521 -7.56808093 0 0 Z " fill="#EE4C2A" transform="translate(349,375)"/>
<path d="M0 0 C6.63675174 4.49546014 11.73112565 11.54394524 14.28515625 19.16015625 C16.0832275 28.87865706 16.21417148 40.17828212 10.7578125 48.71484375 C4.29308536 57.48101376 -3.35762365 63.68551829 -14.2421875 65.71484375 C-26.32917857 66.67630895 -35.13610225 64.40621494 -44.7578125 56.9453125 C-52.56052298 49.94004884 -56.08962795 40.73250543 -56.6796875 30.33984375 C-56.24447259 20.22109705 -52.50014708 10.78706814 -45.2421875 3.71484375 C-42.39120893 1.38175877 -39.47257197 -0.52004249 -36.2421875 -2.28515625 C-35.64019531 -2.62546875 -35.03820312 -2.96578125 -34.41796875 -3.31640625 C-23.47377022 -8.44427367 -10.06609718 -5.76959228 0 0 Z " fill="#EE4C2A" transform="translate(640.2421875,418.28515625)"/>
</svg>
