<svg width="44" height="48" viewBox="0 0 44 48" fill="none" xmlns="http://www.w3.org/2000/svg">
<path d="M3.11943 0.504435L0.42613 0.499348C0.361418 0.499226 0.308868 0.555898 0.308755 0.625929L0.304124 3.49775C0.304011 3.56778 0.356377 3.62465 0.42109 3.62477L3.11439 3.62986C3.1791 3.62998 3.23165 3.57331 3.23176 3.50328L3.23639 0.631459C3.23651 0.561428 3.18414 0.504557 3.11943 0.504435Z" fill="#090A25"/>
<path d="M18.6984 0.504478L15.9622 0.49931C15.9075 0.499206 15.8631 0.547098 15.863 0.60628L15.8583 3.51739C15.8582 3.57657 15.9025 3.62463 15.9571 3.62473L18.6933 3.6299C18.748 3.63 18.7924 3.58211 18.7925 3.52293L18.7972 0.611822C18.7973 0.55264 18.7531 0.504581 18.6984 0.504478Z" fill="#090A25"/>
<path d="M43.4991 0.499318L40.7794 0.504455C40.7329 0.504543 40.6953 0.545394 40.6953 0.595698L40.7001 3.53895C40.7002 3.58926 40.7379 3.62996 40.7844 3.62988L43.5041 3.62474C43.5506 3.62465 43.5882 3.5838 43.5881 3.5335L43.5834 0.590243C43.5833 0.539939 43.5455 0.49923 43.4991 0.499318Z" fill="#090A25"/>
<path d="M6.19887 3.85304L3.58149 3.84809C3.50676 3.84795 3.44606 3.9134 3.44593 3.99429L3.44136 6.82681C3.44123 6.90769 3.50171 6.97337 3.57645 6.97352L6.19383 6.97846C6.26857 6.9786 6.32926 6.91315 6.32939 6.83227L6.33396 3.99974C6.33409 3.91886 6.27361 3.85318 6.19887 3.85304Z" fill="#490852"/>
<path d="M15.5528 3.84802L12.8628 3.8531C12.8081 3.85321 12.7639 3.90127 12.764 3.96045L12.7687 6.87156C12.7688 6.93074 12.8132 6.97863 12.8679 6.97853L15.5578 6.97344C15.6125 6.97334 15.6568 6.92528 15.6567 6.8661L15.652 3.95499C15.6519 3.89581 15.6075 3.84792 15.5528 3.84802Z" fill="#490852"/>
<path d="M31.0656 3.84802L28.3756 3.8531C28.3209 3.85321 28.2767 3.90127 28.2768 3.96045L28.2815 6.87155C28.2816 6.93074 28.326 6.97863 28.3807 6.97853L31.0707 6.97344C31.1254 6.97334 31.1696 6.92528 31.1695 6.8661L31.1648 3.95499C31.1647 3.89581 31.1203 3.84792 31.0656 3.84802Z" fill="#090A25"/>
<path d="M40.3915 3.84798L37.6586 3.85314C37.6039 3.85324 37.5596 3.9013 37.5597 3.96049L37.5645 6.91803C37.5646 6.97721 37.609 7.0251 37.6637 7.025L40.3966 7.01984C40.4513 7.01973 40.4955 6.97167 40.4955 6.91249L40.4907 3.95495C40.4906 3.89577 40.4462 3.84788 40.3915 3.84798Z" fill="#490852"/>
<path d="M3.13588 7.19666L0.402974 7.20182C0.348288 7.20192 0.304032 7.24998 0.304128 7.30916L0.308823 10.2203C0.308918 10.2795 0.353329 10.3273 0.408015 10.3272L3.14092 10.3221C3.1956 10.322 3.23986 10.2739 3.23976 10.2147L3.23507 7.30363C3.23497 7.24445 3.19056 7.19656 3.13588 7.19666Z" fill="#490852"/>
<path d="M12.4774 7.19923H9.74119C9.68012 7.19923 9.63062 7.2528 9.63062 7.31889V10.205C9.63062 10.2711 9.68012 10.3247 9.74119 10.3247H12.4774C12.5385 10.3247 12.588 10.2711 12.588 10.205V7.31889C12.588 7.2528 12.5385 7.19923 12.4774 7.19923Z" fill="#490852"/>
<path d="M15.5535 7.19416L12.8602 7.20433C12.8074 7.20453 12.7647 7.25107 12.7649 7.30828L12.7743 10.2265C12.7745 10.2837 12.8175 10.3299 12.8703 10.3297L15.5636 10.3196C15.6165 10.3194 15.6592 10.2728 15.659 10.2156L15.6496 7.29738C15.6494 7.24017 15.6064 7.19396 15.5535 7.19416Z" fill="#090A25"/>
<path d="M18.6841 7.1941L15.9611 7.20439C15.9055 7.2046 15.8606 7.25354 15.8608 7.31371L15.8702 10.2212C15.8704 10.2814 15.9156 10.33 15.9712 10.3298L18.6942 10.3195C18.7498 10.3193 18.7947 10.2704 18.7945 10.2102L18.7852 7.30266C18.785 7.2425 18.7397 7.19389 18.6841 7.1941Z" fill="#490852"/>
<path d="M21.7638 7.20431L19.0771 7.19416C19.0306 7.19399 18.9928 7.23462 18.9926 7.28493L18.9831 10.2282C18.983 10.2785 19.0205 10.3194 19.067 10.3196L21.7537 10.3297C21.8002 10.3299 21.838 10.2893 21.8381 10.239L21.8476 7.29571C21.8478 7.24541 21.8102 7.20449 21.7638 7.20431Z" fill="#090A25"/>
<path d="M24.892 7.20183L22.1426 7.19663C22.0934 7.19654 22.0534 7.23964 22.0533 7.29291L22.0486 10.2254C22.0485 10.2787 22.0883 10.322 22.1375 10.3221L24.887 10.3272C24.9362 10.3273 24.9761 10.2842 24.9762 10.231L24.981 7.29844C24.981 7.24517 24.9412 7.20192 24.892 7.20183Z" fill="#490852"/>
<path d="M27.9977 7.20181L25.2681 7.19666C25.2235 7.19657 25.1872 7.23568 25.1871 7.28401L25.1824 10.2344C25.1823 10.2827 25.2184 10.322 25.2631 10.3221L27.9927 10.3272C28.0373 10.3273 28.0736 10.2882 28.0737 10.2399L28.0784 7.28948C28.0785 7.24114 28.0424 7.2019 27.9977 7.20181Z" fill="#090A25"/>
<path d="M31.0838 7.19667L28.3608 7.20181C28.3161 7.2019 28.28 7.24115 28.28 7.28948L28.2848 10.2399C28.2849 10.2882 28.3212 10.3273 28.3658 10.3272L31.0888 10.3221C31.1335 10.322 31.1696 10.2828 31.1695 10.2344L31.1648 7.28403C31.1647 7.2357 31.1284 7.19659 31.0838 7.19667Z" fill="#490852"/>
<path d="M34.2062 7.19666L31.47 7.20182C31.4153 7.20193 31.371 7.24999 31.3711 7.30917L31.3758 10.2203C31.3759 10.2795 31.4203 10.3273 31.475 10.3272L34.2112 10.3221C34.2659 10.322 34.3102 10.2739 34.3101 10.2147L34.3054 7.30363C34.3053 7.24444 34.2609 7.19655 34.2062 7.19666Z" fill="#090A25"/>
<path d="M43.4991 7.19667L40.7794 7.20181C40.7329 7.20189 40.6953 7.24274 40.6953 7.29305L40.7001 10.2363C40.7002 10.2866 40.7379 10.3273 40.7844 10.3272L43.5041 10.3221C43.5506 10.322 43.5882 10.2812 43.5881 10.2308L43.5834 7.28759C43.5833 7.23729 43.5455 7.19658 43.4991 7.19667Z" fill="#490852"/>
<path d="M9.33768 10.5453L6.61798 10.5505C6.5715 10.5506 6.53388 10.5914 6.53396 10.6417L6.53871 13.585C6.53879 13.6353 6.57654 13.676 6.62302 13.6759L9.34272 13.6708C9.3892 13.6707 9.42682 13.6298 9.42674 13.5795L9.42199 10.6363C9.42191 10.586 9.38416 10.5453 9.33768 10.5453Z" fill="#090A25"/>
<path d="M12.4955 10.5426L9.70321 10.5532C9.6704 10.5533 9.64389 10.5822 9.64401 10.6177L9.65367 13.6145C9.65379 13.65 9.68048 13.6787 9.71329 13.6786L12.5056 13.668C12.5384 13.6679 12.5649 13.639 12.5648 13.6035L12.5551 10.6067C12.555 10.5712 12.5283 10.5425 12.4955 10.5426Z" fill="#090A25"/>
<path d="M18.6569 10.5453L15.9108 10.5505C15.8589 10.5506 15.8168 10.5963 15.8169 10.6525L15.8217 13.6172C15.8218 13.6734 15.864 13.7189 15.9159 13.7188L18.6621 13.7136C18.714 13.7135 18.756 13.6678 18.756 13.6116L18.7512 10.6469C18.7511 10.5907 18.7089 10.5452 18.6569 10.5453Z" fill="#E6E5E5"/>
<path d="M24.905 10.5453L22.1193 10.5505C22.0801 10.5506 22.0484 10.5851 22.0485 10.6275L22.0533 13.5993C22.0533 13.6417 22.0852 13.676 22.1243 13.676L24.9101 13.6707C24.9492 13.6706 24.981 13.6362 24.9809 13.5938L24.9761 10.6219C24.976 10.5795 24.9442 10.5452 24.905 10.5453Z" fill="#E6E5E5"/>
<path d="M31.0805 10.5453L28.3608 10.5505C28.3143 10.5506 28.2767 10.5914 28.2768 10.6417L28.2815 13.585C28.2816 13.6353 28.3193 13.676 28.3658 13.6759L31.0855 13.6708C31.132 13.6707 31.1696 13.6298 31.1695 13.5795L31.1648 10.6363C31.1647 10.586 31.127 10.5453 31.0805 10.5453Z" fill="#090A25"/>
<path d="M34.2045 10.5453L31.4683 10.5505C31.4154 10.5506 31.3726 10.5971 31.3727 10.6543L31.3774 13.5725C31.3775 13.6297 31.4205 13.676 31.4733 13.6759L34.2095 13.6707C34.2624 13.6706 34.3052 13.6242 34.3051 13.567L34.3004 10.6487C34.3003 10.5915 34.2573 10.5452 34.2045 10.5453Z" fill="#490852"/>
<path d="M37.294 10.5504L34.6172 10.5454C34.5589 10.5453 34.5115 10.5964 34.5114 10.6595L34.5067 13.5563C34.5066 13.6194 34.5538 13.6707 34.6122 13.6708L37.289 13.6759C37.3473 13.676 37.3947 13.6249 37.3948 13.5618L37.3994 10.6649C37.3995 10.6018 37.3523 10.5505 37.294 10.5504Z" fill="#090A25"/>
<path d="M31.512 13.9305L34.1888 13.9716C34.2117 13.9721 34.2336 13.9822 34.2496 13.9999C34.2657 14.0176 34.2747 14.0414 34.2747 14.0662L34.2994 16.9363C34.2995 16.9562 34.2957 16.9759 34.2882 16.9942C34.2807 17.0125 34.2697 17.029 34.2559 17.0426C34.2422 17.0561 34.2258 17.0666 34.2081 17.0732C34.1903 17.0798 34.1714 17.0824 34.1525 17.0809C33.1899 17.0059 32.3053 17.0036 31.4988 17.0738C31.4829 17.0753 31.4668 17.0732 31.4516 17.0675C31.4364 17.0619 31.4225 17.053 31.4107 17.0412C31.3989 17.0294 31.3895 17.0151 31.3831 16.9992C31.3766 16.9833 31.3734 16.9661 31.3734 16.9488L31.3833 14.068C31.3833 14.0498 31.3867 14.0318 31.3931 14.015C31.3996 13.9982 31.4091 13.9829 31.4211 13.9702C31.4331 13.9574 31.4473 13.9473 31.4629 13.9405C31.4785 13.9337 31.4952 13.9303 31.512 13.9305Z" fill="#090A25"/>
<path d="M9.32283 13.9387L6.63283 13.9438C6.57815 13.9439 6.53389 13.9919 6.53399 14.0511L6.53868 16.9622C6.53878 17.0214 6.58319 17.0693 6.63787 17.0692L9.32787 17.0641C9.38255 17.064 9.42681 17.0159 9.42671 16.9568L9.42202 14.0457C9.42192 13.9865 9.37751 13.9386 9.32283 13.9387Z" fill="#490852"/>
<path d="M12.4716 13.9386L9.71558 13.9438C9.66818 13.9439 9.62983 13.9856 9.62991 14.0369L9.63466 16.9801C9.63474 17.0314 9.67323 17.0729 9.72062 17.0728L12.4766 17.0676C12.524 17.0675 12.5624 17.0259 12.5623 16.9746L12.5576 14.0313C12.5575 13.98 12.519 13.9385 12.4716 13.9386Z" fill="#490852"/>
<path d="M15.5677 13.9387L12.848 13.9438C12.8015 13.9439 12.7639 13.9847 12.7639 14.035L12.7687 16.9783C12.7688 17.0286 12.8065 17.0693 12.853 17.0692L15.5727 17.0641C15.6192 17.064 15.6568 17.0231 15.6567 16.9728L15.652 14.0296C15.6519 13.9793 15.6141 13.9386 15.5677 13.9387Z" fill="#E6E5E5"/>
<path d="M21.7917 13.9412H19.006C18.9777 13.9412 18.9548 13.966 18.9548 13.9966V17.0113C18.9548 17.0419 18.9777 17.0667 19.006 17.0667H21.7917C21.82 17.0667 21.8429 17.0419 21.8429 17.0113V13.9966C21.8429 13.966 21.82 13.9412 21.7917 13.9412Z" fill="#E6E5E5"/>
<path d="M27.9994 13.9386L25.2137 13.9439C25.1745 13.9439 25.1428 13.9784 25.1428 14.0208L25.1476 16.9926C25.1477 17.035 25.1795 17.0694 25.2187 17.0693L28.0044 17.064C28.0436 17.0639 28.0753 17.0295 28.0753 16.9871L28.0705 14.0153C28.0704 13.9728 28.0386 13.9385 27.9994 13.9386Z" fill="#E6E5E5"/>
<path d="M37.3072 13.9438L34.604 13.9387C34.553 13.9386 34.5115 13.9833 34.5114 14.0385L34.5067 16.9639C34.5066 17.0191 34.5479 17.064 34.599 17.0641L37.3022 17.0692C37.3532 17.0693 37.3947 17.0246 37.3947 16.9694L37.3995 14.044C37.3996 13.9887 37.3583 13.9439 37.3072 13.9438Z" fill="#490852"/>
<path d="M6.22847 17.2427L3.53847 17.2478C3.48379 17.2479 3.43953 17.296 3.43963 17.3551L3.4444 20.3127C3.44449 20.3719 3.4889 20.4198 3.54359 20.4196L6.23358 20.4146C6.28827 20.4145 6.33252 20.3664 6.33243 20.3072L6.32766 17.3497C6.32756 17.2905 6.28315 17.2426 6.22847 17.2427Z" fill="#090A25"/>
<path d="M12.4619 17.2621L9.73556 17.257C9.67996 17.2569 9.63481 17.3056 9.63471 17.3657L9.62997 20.3054C9.62987 20.3656 9.67487 20.4144 9.73046 20.4145L12.4568 20.4197C12.5124 20.4198 12.5575 20.3711 12.5576 20.3109L12.5624 17.3712C12.5624 17.3111 12.5175 17.2622 12.4619 17.2621Z" fill="#090A25"/>
<path d="M18.6635 17.2426L15.9009 17.2479C15.8545 17.2479 15.8168 17.2888 15.8169 17.3391L15.8217 20.3288C15.8218 20.3791 15.8596 20.4198 15.9061 20.4197L18.6687 20.4145C18.7151 20.4144 18.7528 20.3736 18.7527 20.3233L18.7479 17.3336C18.7478 17.2833 18.71 17.2426 18.6635 17.2426Z" fill="#E6E5E5"/>
<path d="M21.7745 17.2871L19.0317 17.282C18.9916 17.2819 18.959 17.317 18.959 17.3604L18.9542 20.3322C18.9541 20.3756 18.9866 20.4109 19.0267 20.4109L21.7695 20.4161C21.8096 20.4162 21.8421 20.3811 21.8422 20.3377L21.847 17.3659C21.8471 17.3225 21.8146 17.2872 21.7745 17.2871Z" fill="#490852"/>
<path d="M24.8786 17.2427L22.1457 17.2478C22.091 17.2479 22.0467 17.296 22.0468 17.3552L22.0516 20.3127C22.0517 20.3719 22.0961 20.4198 22.1508 20.4197L24.8837 20.4145C24.9384 20.4144 24.9826 20.3664 24.9825 20.3072L24.9777 17.3496C24.9776 17.2905 24.9332 17.2426 24.8786 17.2427Z" fill="#090A25"/>
<path d="M31.0805 17.2409L28.3608 17.246C28.3143 17.2461 28.2767 17.287 28.2768 17.3373L28.2816 20.327C28.2817 20.3773 28.3194 20.418 28.3659 20.4179L31.0856 20.4128C31.1321 20.4127 31.1697 20.3718 31.1696 20.3215L31.1648 17.3318C31.1647 17.2815 31.127 17.2408 31.0805 17.2409Z" fill="#E6E5E5"/>
<path d="M34.1821 17.2491L31.4921 17.2593C31.4283 17.2595 31.3768 17.3157 31.377 17.3847L31.3864 20.2958C31.3866 20.3649 31.4385 20.4206 31.5023 20.4204L34.1923 20.4102C34.2561 20.41 34.3076 20.3538 34.3074 20.2848L34.298 17.3737C34.2978 17.3046 34.2459 17.2489 34.1821 17.2491Z" fill="#490852"/>
<path d="M40.3915 17.2427L37.6586 17.2478C37.6039 17.2479 37.5596 17.296 37.5597 17.3552L37.5645 20.3127C37.5646 20.3719 37.609 20.4198 37.6637 20.4197L40.3966 20.4145C40.4513 20.4144 40.4955 20.3664 40.4955 20.3072L40.4907 17.3496C40.4906 17.2905 40.4462 17.2426 40.3915 17.2427Z" fill="#090A25"/>
<path d="M9.32283 20.636L6.63283 20.6411C6.57815 20.6412 6.53389 20.6893 6.53399 20.7485L6.53868 23.6596C6.53878 23.7188 6.58319 23.7666 6.63787 23.7665L9.32787 23.7615C9.38255 23.7614 9.42681 23.7133 9.42671 23.6541L9.42202 20.743C9.42192 20.6838 9.37751 20.6359 9.32283 20.636Z" fill="#490852"/>
<path d="M12.4716 20.636L9.71558 20.6412C9.66818 20.6413 9.62983 20.6829 9.62991 20.7342L9.63466 23.6775C9.63474 23.7288 9.67323 23.7703 9.72062 23.7702L12.4766 23.765C12.524 23.7649 12.5624 23.7232 12.5623 23.6719L12.5576 20.7287C12.5575 20.6774 12.519 20.6359 12.4716 20.636Z" fill="#490852"/>
<path d="M15.5809 20.636L12.8348 20.6412C12.7956 20.6412 12.7638 20.6757 12.7639 20.7181L12.7687 23.6899C12.7688 23.7323 12.8006 23.7667 12.8398 23.7666L15.5859 23.7614C15.6251 23.7613 15.6568 23.7269 15.6567 23.6845L15.6519 20.7126C15.6519 20.6702 15.6201 20.6359 15.5809 20.636Z" fill="#E6E5E5"/>
<path d="M21.7695 20.636L19.0234 20.6412C18.9842 20.6412 18.9524 20.6757 18.9525 20.7181L18.9573 23.6899C18.9574 23.7323 18.9892 23.7667 19.0284 23.7666L21.7745 23.7614C21.8137 23.7613 21.8454 23.7269 21.8453 23.6845L21.8405 20.7126C21.8405 20.6702 21.8087 20.6359 21.7695 20.636Z" fill="#E6E5E5"/>
<path d="M28.0292 20.6412L25.194 20.6359C25.1675 20.6358 25.1461 20.659 25.146 20.6876L25.1412 23.7094C25.1411 23.738 25.1625 23.7613 25.1889 23.7613L28.0242 23.7667C28.0506 23.7667 28.0721 23.7436 28.0721 23.715L28.077 20.6931C28.077 20.6645 28.0556 20.6413 28.0292 20.6412Z" fill="#E6E5E5"/>
<path d="M31.0657 20.6411L28.3955 20.636C28.3381 20.6359 28.2914 20.6862 28.2913 20.7484L28.2866 23.6488C28.2865 23.7109 28.333 23.7614 28.3904 23.7615L31.0606 23.7665C31.118 23.7666 31.1647 23.7163 31.1648 23.6542L31.1695 20.7538C31.1696 20.6917 31.1231 20.6412 31.0657 20.6411Z" fill="#490852"/>
<path d="M34.1748 20.636L31.4947 20.6411C31.4264 20.6412 31.3711 20.7013 31.3712 20.7753L31.3758 23.6328C31.3759 23.7068 31.4314 23.7667 31.4998 23.7665L34.1799 23.7615C34.2482 23.7613 34.3036 23.7013 34.3034 23.6273L34.2988 20.7698C34.2987 20.6958 34.2432 20.6359 34.1748 20.636Z" fill="#090A25"/>
<path d="M37.294 20.6411L34.6172 20.636C34.5589 20.6359 34.5115 20.687 34.5114 20.7501L34.5067 23.647C34.5066 23.7101 34.5538 23.7614 34.6122 23.7615L37.289 23.7665C37.3473 23.7666 37.3947 23.7155 37.3948 23.6524L37.3994 20.7556C37.3995 20.6925 37.3523 20.6412 37.294 20.6411Z" fill="#490852"/>
<path d="M3.16222 23.9846L0.376504 23.9899C0.337312 23.99 0.305597 24.0244 0.305666 24.0668L0.310459 27.0386C0.310527 27.0811 0.342353 27.1154 0.381544 27.1153L3.16726 27.11C3.20645 27.11 3.23816 27.0755 3.2381 27.0331L3.2333 24.0613C3.23323 24.0189 3.20141 23.9845 3.16222 23.9846Z" fill="#090A25"/>
<path d="M12.4601 23.9847L9.72719 23.9898C9.67251 23.9899 9.62825 24.038 9.62835 24.0972L9.63304 27.0083C9.63314 27.0675 9.67755 27.1154 9.73223 27.1152L12.4651 27.1101C12.5198 27.11 12.5641 27.0619 12.564 27.0027L12.5593 24.0916C12.5592 24.0325 12.5148 23.9846 12.4601 23.9847Z" fill="#090A25"/>
<path d="M18.6974 23.9872H15.8721C15.8438 23.9872 15.8209 24.012 15.8209 24.0426V27.0573C15.8209 27.0879 15.8438 27.1127 15.8721 27.1127H18.6974C18.7257 27.1127 18.7486 27.0879 18.7486 27.0573V24.0426C18.7486 24.012 18.7257 23.9872 18.6974 23.9872Z" fill="#E6E5E5"/>
<path d="M24.905 23.9846L22.1193 23.9899C22.0801 23.99 22.0484 24.0244 22.0485 24.0668L22.0533 27.0386C22.0533 27.0811 22.0852 27.1154 22.1243 27.1153L24.9101 27.11C24.9492 27.11 24.981 27.0755 24.9809 27.0331L24.9761 24.0613C24.976 24.0189 24.9442 23.9845 24.905 23.9846Z" fill="#E6E5E5"/>
<path d="M31.0805 23.9847L28.3608 23.9898C28.3143 23.9899 28.2767 24.0308 28.2768 24.0811L28.2815 27.0243C28.2816 27.0746 28.3193 27.1153 28.3658 27.1152L31.0855 27.1101C31.132 27.11 31.1696 27.0692 31.1695 27.0189L31.1648 24.0756C31.1647 24.0253 31.127 23.9846 31.0805 23.9847Z" fill="#E6E5E5"/>
<path d="M34.216 23.9864L31.4699 23.9916C31.4216 23.9917 31.3825 24.0342 31.3826 24.0864L31.3873 27.019C31.3874 27.0713 31.4266 27.1136 31.4749 27.1135L34.2211 27.1083C34.2694 27.1082 34.3084 27.0657 34.3084 27.0135L34.3036 24.0809C34.3036 24.0287 34.2643 23.9863 34.216 23.9864Z" fill="#490852"/>
<path d="M43.5121 23.9864L40.766 23.9916C40.7268 23.9917 40.6951 24.0261 40.6952 24.0686L40.7001 27.0832C40.7001 27.1257 40.7319 27.16 40.7711 27.1599L43.5172 27.1547C43.5564 27.1547 43.5882 27.1202 43.5881 27.0778L43.5832 24.0631C43.5832 24.0207 43.5513 23.9864 43.5121 23.9864Z" fill="#090A25"/>
<path d="M6.25835 27.3385L3.51884 27.3333C3.47783 27.3333 3.44452 27.3692 3.44445 27.4136L3.4396 30.4211C3.43953 30.4655 3.47272 30.5015 3.51373 30.5016L6.25324 30.5068C6.29425 30.5069 6.32756 30.471 6.32763 30.4266L6.33248 27.419C6.33255 27.3746 6.29936 27.3386 6.25835 27.3385Z" fill="#490852"/>
<path d="M12.4601 27.3333L9.72719 27.3385C9.67251 27.3386 9.62825 27.3867 9.62835 27.4458L9.63312 30.4034C9.63321 30.4626 9.67762 30.5105 9.73231 30.5104L12.4652 30.5052C12.5199 30.5051 12.5642 30.457 12.5641 30.3978L12.5593 27.4403C12.5592 27.3811 12.5148 27.3332 12.4601 27.3333Z" fill="#490852"/>
<path d="M15.5824 27.3351L12.8363 27.3403C12.7962 27.3404 12.7637 27.3756 12.7638 27.419L12.7687 30.4301C12.7687 30.4735 12.8013 30.5087 12.8414 30.5086L15.5875 30.5034C15.6276 30.5033 15.6601 30.4681 15.66 30.4247L15.6551 27.4135C15.6551 27.3701 15.6225 27.335 15.5824 27.3351Z" fill="#E6E5E5"/>
<path d="M21.7382 27.3385L19.0647 27.3334C19.0054 27.3333 18.9573 27.3852 18.9572 27.4493L18.9525 30.3854C18.9524 30.4495 19.0003 30.5016 19.0596 30.5017L21.7331 30.5067C21.7923 30.5068 21.8404 30.455 21.8405 30.3909L21.8452 27.4547C21.8453 27.3906 21.7974 27.3386 21.7382 27.3385Z" fill="#090A25"/>
<path d="M24.8408 27.3384L22.1904 27.3334C22.113 27.3333 22.0501 27.4011 22.0499 27.485L22.0453 30.3532C22.0452 30.437 22.1079 30.5051 22.1853 30.5053L24.8357 30.5103C24.9132 30.5104 24.9761 30.4426 24.9762 30.3587L24.9809 27.4905C24.981 27.4066 24.9183 27.3386 24.8408 27.3384Z" fill="#490852"/>
<path d="M28.001 27.3333L25.212 27.3385C25.1728 27.3386 25.141 27.3731 25.1411 27.4155L25.146 30.4337C25.1461 30.4762 25.1779 30.5105 25.2171 30.5104L28.0061 30.5051C28.0453 30.5051 28.077 30.4706 28.0769 30.4282L28.0721 27.4099C28.072 27.3675 28.0402 27.3332 28.001 27.3333Z" fill="#E6E5E5"/>
<path d="M34.1945 27.3333L31.4814 27.3385C31.4204 27.3386 31.3709 27.3923 31.371 27.4583L31.3758 30.3873C31.3759 30.4534 31.4255 30.5069 31.4865 30.5068L34.1996 30.5016C34.2607 30.5015 34.3101 30.4479 34.31 30.3818L34.3053 27.4528C34.3052 27.3867 34.2556 27.3332 34.1945 27.3333Z" fill="#090A25"/>
<path d="M40.3915 27.3333L37.6586 27.3385C37.6039 27.3386 37.5596 27.3867 37.5597 27.4458L37.5645 30.4034C37.5646 30.4626 37.609 30.5105 37.6637 30.5104L40.3966 30.5052C40.4513 30.5051 40.4955 30.457 40.4955 30.3978L40.4907 27.4403C40.4906 27.3811 40.4462 27.3332 40.3915 27.3333Z" fill="#490852"/>
<path d="M9.32448 30.7267L6.63448 30.7318C6.57889 30.7319 6.53389 30.7807 6.53399 30.8409L6.53868 33.7484C6.53878 33.8086 6.58393 33.8573 6.63953 33.8572L9.32952 33.8521C9.38512 33.852 9.43011 33.8031 9.43001 33.743L9.42532 30.8354C9.42522 30.7753 9.38008 30.7266 9.32448 30.7267Z" fill="#490852"/>
<path d="M9.62573 31.7508C9.61473 31.4543 9.62628 31.1579 9.66038 30.8614C9.66354 30.8359 9.67478 30.8125 9.69205 30.7954C9.70932 30.7784 9.73147 30.7688 9.75445 30.7685L12.4676 30.7382C12.4783 30.7379 12.489 30.7401 12.499 30.7446C12.509 30.749 12.5181 30.7557 12.5258 30.7642C12.5335 30.7727 12.5396 30.7828 12.5437 30.794C12.5479 30.8051 12.5501 30.8171 12.5501 30.8292L12.5583 33.6868C12.5583 33.7087 12.5541 33.7305 12.5459 33.7508C12.5377 33.771 12.5256 33.7894 12.5104 33.8049C12.4952 33.8203 12.4772 33.8325 12.4574 33.8407C12.4375 33.849 12.4163 33.8531 12.3949 33.8529L9.76435 33.8386C9.74139 33.8386 9.71926 33.8304 9.70199 33.8153C9.68472 33.8002 9.67347 33.7793 9.67029 33.7564C9.62628 33.4111 9.61087 33.0659 9.62408 32.7206C9.63618 32.4086 9.63673 32.0854 9.62573 31.7508Z" fill="#090A25"/>
<path d="M18.7 30.7319L15.8747 30.7266C15.8455 30.7265 15.8219 30.7521 15.8218 30.7836L15.817 33.7948C15.8169 33.8263 15.8405 33.8519 15.8697 33.852L18.695 33.8573C18.7242 33.8574 18.7478 33.8318 18.7479 33.8003L18.7527 30.7892C18.7528 30.7576 18.7292 30.732 18.7 30.7319Z" fill="#E6E5E5"/>
<path d="M24.9274 30.7292H22.1021C22.0738 30.7292 22.0509 30.754 22.0509 30.7846V33.7993C22.0509 33.8299 22.0738 33.8547 22.1021 33.8547H24.9274C24.9556 33.8547 24.9785 33.8299 24.9785 33.7993V30.7846C24.9785 30.754 24.9556 30.7292 24.9274 30.7292Z" fill="#E6E5E5"/>
<path d="M31.0937 30.7266L28.3476 30.7318C28.3084 30.7319 28.2767 30.7663 28.2767 30.8088L28.2815 33.7806C28.2816 33.823 28.3134 33.8573 28.3526 33.8572L31.0987 33.8521C31.1379 33.852 31.1696 33.8175 31.1696 33.7751L31.1648 30.8033C31.1647 30.7609 31.1329 30.7266 31.0937 30.7266Z" fill="#E6E5E5"/>
<path d="M34.2293 30.7319L31.4535 30.7266C31.4116 30.7265 31.3775 30.7633 31.3774 30.8086L31.3727 33.7447C31.3726 33.7901 31.4066 33.827 31.4485 33.827L34.2243 33.8323C34.2662 33.8324 34.3003 33.7956 34.3003 33.7503L34.3051 30.8142C34.3051 30.7688 34.2712 30.7319 34.2293 30.7319Z" fill="#090A25"/>
<path d="M37.3089 30.7318L34.6057 30.7267C34.5537 30.7266 34.5115 30.7721 34.5114 30.8283L34.5067 33.7501C34.5066 33.8064 34.5487 33.852 34.6006 33.8521L37.3038 33.8572C37.3558 33.8573 37.398 33.8118 37.3981 33.7556L37.4028 30.8338C37.4029 30.7776 37.3608 30.7319 37.3089 30.7318Z" fill="#490852"/>
<path d="M3.11601 34.0307L0.419416 34.0358C0.354704 34.0359 0.302338 34.0928 0.302451 34.1628L0.307151 37.0775C0.307264 37.1475 0.359814 37.2042 0.424526 37.2041L3.12112 37.199C3.18583 37.1989 3.23821 37.142 3.23809 37.072L3.23339 34.1573C3.23328 34.0873 3.18072 34.0306 3.11601 34.0307Z" fill="#490852"/>
<path d="M12.4643 34.0422H9.72804C9.67518 34.0422 9.63232 34.0886 9.63232 34.1458V37.0998C9.63232 37.157 9.67518 37.2033 9.72804 37.2033H12.4643C12.5171 37.2033 12.56 37.157 12.56 37.0998V34.1458C12.56 34.0886 12.5171 34.0422 12.4643 34.0422Z" fill="#490852"/>
<path d="M15.6031 34.035H12.8174C12.7891 34.035 12.7662 34.0598 12.7662 34.0904V37.148C12.7662 37.1785 12.7891 37.2033 12.8174 37.2033H15.6031C15.6314 37.2033 15.6543 37.1785 15.6543 37.148V34.0904C15.6543 34.0598 15.6314 34.035 15.6031 34.035Z" fill="#E6E5E5"/>
<path d="M21.7695 34.0324L19.0234 34.0376C18.9842 34.0377 18.9524 34.0721 18.9525 34.1146L18.9574 37.1293C18.9574 37.1717 18.9893 37.206 19.0285 37.2059L21.7746 37.2007C21.8138 37.2007 21.8455 37.1662 21.8454 37.1238L21.8405 34.1091C21.8405 34.0667 21.8087 34.0324 21.7695 34.0324Z" fill="#E6E5E5"/>
<path d="M28.0193 34.0359L25.2105 34.0306C25.1749 34.0306 25.1461 34.0617 25.146 34.1002L25.1411 37.1291C25.1411 37.1676 25.1698 37.1988 25.2054 37.1989L28.0142 37.2042C28.0497 37.2043 28.0786 37.1731 28.0787 37.1347L28.0835 34.1057C28.0836 34.0672 28.0548 34.036 28.0193 34.0359Z" fill="#E6E5E5"/>
<path d="M34.1599 34.0379L31.5128 34.0429C31.4354 34.043 31.3727 34.1111 31.3728 34.195L31.3774 37.0561C31.3776 37.1399 31.4405 37.2078 31.5179 37.2076L34.165 37.2026C34.2425 37.2025 34.3052 37.1344 34.3051 37.0505L34.3004 34.1894C34.3003 34.1056 34.2374 34.0377 34.1599 34.0379Z" fill="#490852"/>
<path d="M43.5121 34.0324L40.766 34.0376C40.7268 34.0377 40.6951 34.0721 40.6952 34.1146L40.7001 37.1293C40.7001 37.1717 40.7319 37.206 40.7711 37.2059L43.5172 37.2007C43.5564 37.2007 43.5882 37.1662 43.5881 37.1238L43.5832 34.1091C43.5832 34.0667 43.5513 34.0324 43.5121 34.0324Z" fill="#490852"/>
<path d="M31.0788 34.0754L28.3921 34.0804C28.3447 34.0805 28.3063 34.1222 28.3064 34.1735L28.3112 37.1132C28.3112 37.1644 28.3497 37.206 28.3971 37.2059L31.0838 37.2008C31.1312 37.2007 31.1696 37.159 31.1695 37.1078L31.1648 34.1681C31.1647 34.1168 31.1262 34.0753 31.0788 34.0754Z" fill="#090A25"/>
<path d="M9.32283 37.424L6.63283 37.4291C6.57815 37.4292 6.53389 37.4773 6.53399 37.5365L6.53876 40.494C6.53885 40.5532 6.58326 40.6011 6.63795 40.601L9.32794 40.5959C9.38263 40.5958 9.42688 40.5477 9.42679 40.4886L9.42202 37.531C9.42192 37.4718 9.37751 37.4239 9.32283 37.424Z" fill="#490852"/>
<path d="M12.4879 37.4312L9.70555 37.447C9.66544 37.4472 9.6331 37.4826 9.63331 37.526L9.64783 40.5263C9.64804 40.5697 9.68072 40.6047 9.72082 40.6045L12.5032 40.5887C12.5433 40.5885 12.5756 40.5532 12.5754 40.5098L12.5609 37.5094C12.5607 37.466 12.528 37.431 12.4879 37.4312Z" fill="#090A25"/>
<path d="M15.5707 37.4296L12.8642 37.445C12.8223 37.4452 12.7885 37.4822 12.7887 37.5276L12.8032 40.5208C12.8034 40.5662 12.8376 40.6027 12.8795 40.6025L15.586 40.5872C15.6279 40.5869 15.6617 40.55 15.6615 40.5046L15.647 37.5114C15.6468 37.466 15.6126 37.4294 15.5707 37.4296Z" fill="#090A25"/>
<path d="M18.6933 37.424L15.9538 37.4292C15.9019 37.4293 15.8598 37.4749 15.8599 37.5311L15.8647 40.4744C15.8647 40.5306 15.9069 40.5761 15.9589 40.576L18.6984 40.5708C18.7503 40.5708 18.7924 40.5251 18.7923 40.4689L18.7875 37.5256C18.7875 37.4694 18.7453 37.4239 18.6933 37.424Z" fill="#490852"/>
<path d="M21.7562 37.4401L19.0497 37.4452C19.0041 37.4453 18.9672 37.4853 18.9673 37.5347L18.9721 40.5101C18.9722 40.5594 19.0092 40.5993 19.0548 40.5992L21.7613 40.5941C21.8068 40.594 21.8437 40.554 21.8436 40.5046L21.8388 37.5292C21.8388 37.4799 21.8017 37.44 21.7562 37.4401Z" fill="#090A25"/>
<path d="M24.8803 37.4222L22.1441 37.4274C22.0912 37.4275 22.0484 37.4739 22.0485 37.5311L22.0533 40.4958C22.0534 40.553 22.0963 40.5993 22.1492 40.5992L24.8854 40.5941C24.9382 40.594 24.981 40.5475 24.9809 40.4903L24.9761 37.5256C24.9761 37.4684 24.9331 37.4221 24.8803 37.4222Z" fill="#490852"/>
<path d="M28.0076 37.4472L25.245 37.4524C25.2103 37.4525 25.1823 37.4829 25.1824 37.5204L25.1872 40.5315C25.1873 40.569 25.2154 40.5993 25.25 40.5993L28.0126 40.594C28.0473 40.594 28.0753 40.5635 28.0752 40.5261L28.0704 37.5149C28.0703 37.4774 28.0422 37.4471 28.0076 37.4472Z" fill="#090A25"/>
<path d="M31.1053 37.431L28.3559 37.4258C28.3203 37.4257 28.2915 37.4568 28.2914 37.4953L28.2865 40.4993C28.2865 40.5377 28.3153 40.569 28.3508 40.5691L31.1002 40.5742C31.1357 40.5743 31.1646 40.5432 31.1647 40.5047L31.1695 37.5007C31.1696 37.4623 31.1408 37.431 31.1053 37.431Z" fill="#490852"/>
<path d="M34.1682 37.4241L31.5046 37.4291C31.4317 37.4292 31.3727 37.4933 31.3728 37.5722L31.3774 40.4583C31.3776 40.5372 31.4368 40.6011 31.5097 40.601L34.1733 40.5959C34.2462 40.5958 34.3052 40.5317 34.3051 40.4528L34.3004 37.5667C34.3003 37.4878 34.2411 37.4239 34.1682 37.4241Z" fill="#090A25"/>
<path d="M37.2921 37.424L34.612 37.4291C34.5546 37.4292 34.5081 37.4797 34.5082 37.5418L34.513 40.4886C34.5131 40.5508 34.5597 40.6011 34.6171 40.601L37.2972 40.5959C37.3547 40.5958 37.4011 40.5453 37.401 40.4832L37.3963 37.5364C37.3962 37.4742 37.3495 37.4239 37.2921 37.424Z" fill="#490852"/>
<path d="M18.7205 40.8145H15.9348C15.8947 40.8145 15.8622 40.8497 15.8622 40.8931V43.8221C15.8622 43.8655 15.8947 43.9007 15.9348 43.9007H18.7205C18.7606 43.9007 18.7931 43.8655 18.7931 43.8221V40.8931C18.7931 40.8497 18.7606 40.8145 18.7205 40.8145Z" fill="#090A25"/>
<path d="M31.102 40.8118L28.3526 40.8066C28.3134 40.8065 28.2816 40.8408 28.2815 40.8832L28.2768 43.8194C28.2767 43.8618 28.3084 43.8962 28.3476 43.8963L31.097 43.9015C31.1362 43.9016 31.168 43.8672 31.1681 43.8248L31.1728 40.8887C31.1729 40.8463 31.1412 40.8118 31.102 40.8118Z" fill="#090A25"/>
<path d="M21.753 44.1265L19.0498 44.1214C18.9988 44.1213 18.9573 44.166 18.9572 44.2212L18.9524 47.1895C18.9524 47.2447 18.9937 47.2895 19.0447 47.2896L21.7479 47.2948C21.7989 47.2948 21.8404 47.2501 21.8405 47.1949L21.8453 44.2267C21.8454 44.1714 21.8041 44.1266 21.753 44.1265Z" fill="#490852"/>
</svg>
