<?xml version="1.0" standalone="no"?>
<!DOCTYPE svg PUBLIC "-//W3C//DTD SVG 20010904//EN"
 "http://www.w3.org/TR/2001/REC-SVG-20010904/DTD/svg10.dtd">
<svg version="1.0" xmlns="http://www.w3.org/2000/svg"
 width="1920.000000pt" height="485.000000pt" viewBox="0 0 1920.000000 485.000000"
 preserveAspectRatio="xMidYMid meet">

<g transform="translate(0.000000,485.000000) scale(0.100000,-0.100000)"
fill="#000000" stroke="none">
<path d="M969 4748 c-41 -57 -137 -182 -214 -278 -343 -429 -518 -729 -638
-1095 -182 -550 -145 -1094 108 -1610 140 -286 385 -603 613 -795 l89 -75 7
-80 c15 -181 37 -401 42 -423 4 -20 10 -22 69 -22 l64 0 5 32 c5 31 27 257 42
419 l6 77 49 37 c77 59 260 245 350 357 505 628 651 1348 417 2067 -114 352
-299 681 -583 1036 -71 88 -175 223 -233 300 -57 77 -107 143 -111 148 -4 4
-41 -39 -82 -95z m137 -2646 l47 -1063 -49 -50 c-26 -27 -53 -49 -59 -49 -6 0
-33 22 -60 50 l-49 50 47 1072 c26 590 50 1098 54 1128 l7 55 8 -65 c4 -36 29
-543 54 -1128z"/>
<path d="M3160 3235 l0 -65 68 0 c72 0 99 -13 122 -59 10 -19 11 -232 5 -985
-4 -563 -10 -974 -16 -992 -17 -56 -51 -78 -129 -82 l-70 -4 0 -59 0 -59 290
0 290 0 0 59 0 58 -50 5 c-60 6 -95 34 -110 87 -12 42 -14 1801 -2 1801 4 0
198 -457 432 -1016 278 -665 431 -1021 444 -1030 30 -20 64 -17 89 8 13 13
199 447 431 1003 225 539 412 984 416 988 4 5 10 -388 15 -871 6 -799 5 -882
-9 -910 -20 -39 -63 -62 -116 -62 l-40 0 0 -60 0 -60 340 0 340 0 0 60 0 60
-55 0 c-31 0 -69 7 -85 15 -62 32 -59 -21 -60 1053 -1 768 1 984 11 1000 22
35 63 52 128 52 l61 0 0 65 0 65 -292 -2 -291 -3 -382 -929 c-210 -510 -386
-935 -391 -943 -6 -10 -121 259 -398 932 l-390 945 -298 0 -298 0 0 -65z"/>
<path d="M14392 3238 l3 -63 59 -3 c40 -2 69 -10 88 -23 61 -44 58 13 58
-1046 0 -931 -1 -969 -19 -997 -31 -47 -69 -66 -134 -66 l-58 0 3 -62 3 -63
380 -3 c438 -3 628 7 765 42 215 56 359 137 510 286 112 111 157 172 220 298
163 328 161 814 -5 1142 -158 313 -417 509 -780 592 -83 19 -130 21 -593 25
l-503 5 3 -64z m1043 -142 c91 -26 233 -99 297 -153 148 -124 252 -309 303
-538 22 -96 31 -377 16 -490 -41 -313 -185 -565 -401 -700 -133 -83 -278 -119
-491 -120 -155 0 -156 0 -192 28 -23 17 -40 41 -47 65 -8 26 -10 315 -8 942 3
887 3 906 23 932 43 57 53 59 255 54 132 -2 202 -8 245 -20z"/>
<path d="M16630 3235 l0 -65 62 0 c58 0 63 -2 100 -40 l38 -41 0 -975 c0
-1076 4 -1014 -63 -1054 -22 -14 -50 -20 -90 -20 l-58 0 3 -63 3 -62 580 1
c564 0 583 1 685 23 195 42 330 110 442 223 140 142 198 352 153 561 -47 225
-192 365 -458 442 -32 9 -57 18 -55 20 2 2 38 26 81 54 188 123 268 259 269
456 1 156 -51 283 -158 389 -113 113 -274 184 -466 205 -56 6 -301 11 -583 11
l-485 0 0 -65z m1056 -135 c134 -34 226 -113 275 -237 20 -50 24 -76 24 -183
0 -104 -4 -135 -22 -183 -43 -116 -127 -198 -238 -234 -39 -13 -106 -17 -312
-21 l-263 -4 0 397 0 398 44 43 43 44 185 0 c152 0 199 -4 264 -20z m132
-1054 c192 -49 316 -186 344 -382 29 -206 -72 -410 -251 -507 -90 -50 -148
-59 -395 -64 -258 -6 -288 -1 -335 52 l-31 36 0 446 0 445 303 -5 c230 -4 317
-9 365 -21z"/>
<path d="M6880 2631 c-280 -61 -511 -256 -611 -515 -43 -111 -60 -211 -60
-352 0 -190 36 -326 125 -479 57 -97 190 -228 289 -284 348 -196 800 -147
1072 115 138 133 227 311 254 509 36 258 -24 503 -171 699 -99 132 -272 246
-448 296 -109 31 -333 37 -450 11z m338 -176 c191 -45 334 -191 401 -407 33
-110 46 -262 32 -389 -35 -324 -193 -531 -446 -584 -316 -67 -594 120 -672
452 -27 118 -25 389 5 496 62 226 212 386 405 433 71 17 199 17 275 -1z"/>
<path d="M9185 2635 c-149 -33 -278 -110 -369 -222 -28 -34 -56 -62 -61 -62
-6 -1 -26 58 -44 129 l-34 130 -51 0 c-45 -1 -67 -10 -186 -78 l-135 -77 -3
-41 -3 -41 57 -7 c130 -15 124 19 124 -654 0 -373 -4 -569 -11 -590 -14 -41
-50 -62 -115 -69 l-54 -6 0 -58 0 -59 320 0 320 0 0 60 0 60 -32 0 c-62 0
-108 19 -128 53 -19 30 -20 54 -20 439 0 464 4 500 72 638 96 197 276 302 487
287 143 -11 239 -81 293 -215 23 -57 23 -61 26 -595 l3 -538 -30 -29 c-26 -26
-37 -30 -85 -30 l-56 0 0 -65 0 -65 315 0 315 0 0 65 0 65 -51 0 c-61 0 -84
11 -104 50 -13 25 -15 105 -15 547 0 412 -3 532 -15 586 -43 202 -192 348
-401 392 -85 18 -248 18 -329 0z"/>
<path d="M11060 2644 c-181 -35 -305 -98 -420 -213 -132 -132 -190 -267 -190
-441 0 -180 51 -300 182 -433 l86 -89 -114 -155 c-149 -200 -154 -209 -154
-264 0 -80 57 -129 151 -129 l51 0 -71 -66 c-204 -189 -213 -480 -20 -658 122
-113 297 -173 534 -183 583 -24 1006 276 972 690 -13 158 -128 301 -296 366
-120 48 -183 54 -629 60 l-423 6 86 115 c47 63 89 118 93 122 4 4 31 -1 59
-12 159 -60 419 -41 598 45 243 116 387 331 386 575 0 53 -7 121 -15 155 -26
98 -92 222 -152 283 -30 31 -53 57 -51 58 1 1 76 -6 167 -17 91 -10 173 -19
183 -19 15 0 17 11 17 85 l0 85 -307 0 c-250 0 -318 3 -363 16 -54 16 -306 28
-360 18z m324 -217 c140 -70 226 -195 247 -360 30 -232 -65 -427 -251 -516
-64 -31 -86 -36 -165 -39 -103 -5 -186 17 -260 68 -136 93 -195 216 -195 405
0 168 39 273 135 364 54 52 130 95 192 111 21 5 80 8 131 6 83 -3 100 -7 166
-39z m159 -1521 c142 -33 217 -136 217 -296 0 -114 -39 -199 -129 -283 -99
-93 -236 -137 -427 -137 -179 0 -301 39 -394 126 -72 68 -95 127 -95 249 0 87
3 107 26 156 30 63 84 128 143 171 l39 28 281 0 c201 0 297 -4 339 -14z"/>
<path d="M13030 2631 c-277 -61 -512 -257 -609 -511 -44 -113 -61 -213 -61
-355 0 -268 76 -461 250 -635 176 -176 416 -263 681 -247 479 29 819 395 819
882 0 410 -238 739 -615 850 -123 37 -338 44 -465 16z m338 -176 c191 -45 334
-191 401 -407 33 -110 46 -262 32 -389 -35 -324 -193 -530 -446 -584 -260 -55
-495 58 -613 294 -62 123 -77 205 -76 406 1 191 16 270 76 393 42 87 163 212
239 247 121 55 262 69 387 40z"/>
<path d="M18929 1341 c-168 -33 -236 -233 -121 -354 43 -45 96 -68 160 -68
112 -1 198 62 222 162 37 152 -103 290 -261 260z m124 -35 c39 -16 82 -61 96
-99 6 -16 11 -52 11 -80 -1 -168 -201 -248 -321 -128 -92 92 -64 255 53 306
42 18 120 19 161 1z"/>
<path d="M18893 1229 c14 -8 17 -25 17 -94 0 -69 -3 -86 -17 -94 -14 -8 -5
-10 37 -10 42 0 51 2 38 10 -19 10 -26 79 -9 79 5 0 21 -20 35 -45 22 -37 32
-45 56 -45 l29 0 -23 26 c-59 65 -57 61 -30 79 16 10 24 25 24 45 0 47 -22 60
-103 60 -54 -1 -68 -3 -54 -11z m103 -7 c33 -22 18 -82 -21 -82 -22 0 -25 4
-25 38 0 50 16 65 46 44z"/>
</g>
</svg>
