<?xml version="1.0" encoding="UTF-8"?>
<svg version="1.1" xmlns="http://www.w3.org/2000/svg" width="269" height="326">
<path d="M0 0 C2.52040664 0.01611263 5.03921081 0.00001365 7.55957031 -0.01904297 C16.09648556 -0.03063494 24.40905952 0.4405004 32.85253906 1.74267578 C34.01190979 1.92015854 34.01190979 1.92015854 35.19470215 2.10122681 C45.18603781 3.80395196 54.97460998 8.46022593 61.52050781 16.39111328 C66.29036806 24.23998616 68.62770417 30.84165932 68.68164062 40.01049805 C68.68660553 40.65519547 68.69157043 41.29989288 68.69668579 41.96412659 C68.71123033 44.08693535 68.71809884 46.20966922 68.72363281 48.33251953 C68.72787388 49.42849614 68.72787388 49.42849614 68.73220062 50.54661369 C68.74716724 54.41836785 68.75641082 58.29008503 68.76074219 62.16186523 C68.76620245 66.13016216 68.79018547 70.09811175 68.81871414 74.06630039 C68.83749384 77.1438439 68.84255434 80.22130659 68.84407806 83.29890251 C68.84707408 84.75990623 68.8549972 86.22090959 68.86826324 87.68185616 C68.98083404 101.03956881 67.94125441 113.20946023 58.52050781 123.39111328 C50.07114612 130.36473029 41.91663662 132.51322048 31.05322266 132.51708984 C29.96891464 132.51989204 29.96891464 132.51989204 28.86270142 132.52275085 C27.3011447 132.52673664 25.73958223 132.52882801 24.17802048 132.52921295 C20.840842 132.53265755 17.50385332 132.55405967 14.16674232 132.57444382 C7.96676712 132.61228342 1.76699874 132.64373668 -4.43310547 132.64160156 C-8.75862065 132.64080904 -13.08343274 132.66440446 -17.40876389 132.70348358 C-19.04555465 132.71386158 -20.68242738 132.71552887 -22.31923294 132.70783234 C-36.310783 132.64862359 -48.16850195 135.22361595 -58.47949219 145.39111328 C-68.41913826 157.13190327 -69.10874199 169.91588892 -69.22949219 184.57861328 C-69.25770431 186.31106429 -69.28763889 188.04348815 -69.31933594 189.77587891 C-69.3925745 193.98090751 -69.44252638 198.18561581 -69.47949219 202.39111328 C-73.56268437 202.47962178 -77.64562381 202.53200391 -81.72949219 202.57861328 C-82.86902344 202.60375 -84.00855469 202.62888672 -85.18261719 202.65478516 C-96.03819852 202.74730432 -106.0403563 201.70106569 -114.51464844 194.40673828 C-130.13187184 178.38588883 -132.21810051 153.1659618 -132.00463867 131.99975586 C-131.48673919 113.70676244 -129.11309622 94.22352702 -115.86621094 80.58251953 C-106.60129843 72.07578317 -96.93427671 68.89582862 -84.43994141 69.05053711 C-83.4923848 69.05009903 -82.54482819 69.04966095 -81.56855774 69.04920959 C-78.47354665 69.0512798 -75.37909474 69.07452668 -72.28417969 69.09814453 C-70.1237111 69.10374678 -67.96323867 69.1080139 -65.80276489 69.11100769 C-60.14417818 69.12240691 -54.48582617 69.15183143 -48.82733154 69.18511963 C-43.04214654 69.21592704 -37.25692325 69.22953576 -31.47167969 69.24462891 C-20.14084798 69.27670608 -8.81018968 69.32784242 2.52050781 69.39111328 C2.52050781 67.08111328 2.52050781 64.77111328 2.52050781 62.39111328 C-18.92949219 62.39111328 -40.37949219 62.39111328 -62.47949219 62.39111328 C-62.54136719 56.82236328 -62.60324219 51.25361328 -62.66699219 45.51611328 C-62.70796021 42.9118042 -62.70796021 42.9118042 -62.74975586 40.25488281 C-62.83724439 30.74750459 -62.64579393 22.32681894 -57.35449219 14.07861328 C-49.19194159 6.44840294 -38.4966382 3.39743655 -27.66699219 1.72705078 C-26.85222412 1.600914 -26.03745605 1.47477722 -25.19799805 1.34481812 C-16.80131732 0.14556458 -8.4707629 -0.06404803 0 0 Z M-41.47949219 23.39111328 C-44.54725796 26.15210247 -45.23238353 29.2834163 -45.61230469 33.36376953 C-45.33028345 37.66874075 -42.52378187 40.31081361 -39.66699219 43.26611328 C-36.40186144 44.94532338 -34.10213724 44.82832906 -30.47949219 44.39111328 C-26.77559197 42.3644509 -24.82586208 40.91066812 -22.47949219 37.39111328 C-21.80565264 33.66726315 -21.71615542 30.0063884 -23.35449219 26.53955078 C-25.48750344 23.69085812 -27.65122337 22.31160811 -30.85449219 20.82861328 C-35.37515468 20.28301608 -37.562518 21.13132048 -41.47949219 23.39111328 Z " fill="#3C79AA" transform="translate(131.4794921875,-0.39111328125)"/>
<path d="M0 0 C4.25004671 -0.07485856 8.49973134 -0.12893167 12.75024414 -0.16479492 C14.19236955 -0.17976508 15.63445036 -0.20014868 17.07641602 -0.22631836 C28.41692576 -0.42679184 37.64706019 -0.12778699 46.22265625 8.07421875 C61.82130995 24.97561715 62.91270187 54.66996325 62.37890625 76.21875 C62.01260293 84.55071524 60.77048501 92.14118759 58 100 C57.74798828 100.72638672 57.49597656 101.45277344 57.23632812 102.20117188 C53.15029348 113.65578698 48.12559932 125.5541952 36.5625 131.1875 C30.45106672 133.12527153 24.48177832 133.13848807 18.13916016 133.11352539 C17.16292694 133.11367142 16.18669373 133.11381744 15.18087769 133.1139679 C11.96691637 133.11327345 8.75301364 133.10550297 5.5390625 133.09765625 C3.30561352 133.09579041 1.07216413 133.09436729 -1.1612854 133.09336853 C-7.03026465 133.08955644 -12.89921903 133.07973733 -18.76818848 133.06866455 C-24.76082015 133.0584223 -30.75345585 133.05386488 -36.74609375 133.04882812 C-48.49740674 133.03811388 -60.2487013 133.02105317 -72 133 C-72 135.31 -72 137.62 -72 140 C-50.55 140 -29.1 140 -7 140 C-7 176.33958877 -7 176.33958877 -15.75 186.4375 C-30.71270758 200.60262189 -55.35286919 204.11708862 -75.09375 204.03515625 C-94.05810948 203.25761751 -117.07790687 199.11673955 -130.9140625 185.0546875 C-138.45730815 175.57918188 -138.46215108 165.96241056 -138.43359375 154.41796875 C-138.43816283 152.79665408 -138.44347055 151.17534135 -138.44947815 149.55403137 C-138.45838445 146.16411448 -138.45601578 142.77443346 -138.44604492 139.38452148 C-138.4345765 135.06742274 -138.45474624 130.75114459 -138.48396206 126.43415356 C-138.50242466 123.08725416 -138.50201142 119.74054761 -138.49632454 116.39361 C-138.49617245 114.80339726 -138.50212231 113.21317049 -138.51461601 111.62300682 C-138.6040242 98.37619072 -137.01195323 88.05735692 -127.515625 78.16796875 C-120.81613262 72.3943379 -113.62561836 69.88146114 -104.88916016 69.8581543 C-104.16833252 69.85467987 -103.44750488 69.85120544 -102.70483398 69.84762573 C-101.13831986 69.84027389 -99.57179536 69.83492546 -98.0052681 69.83133507 C-95.51460699 69.82414818 -93.02414047 69.80846056 -90.53353882 69.78999329 C-83.45126178 69.73766096 -76.36908687 69.68966239 -69.28662109 69.67407227 C-64.95166215 69.66390577 -60.61718744 69.63435625 -56.28242111 69.59275246 C-54.64087997 69.5805505 -52.99927004 69.57530114 -51.35768509 69.57755089 C-36.3901713 69.59300105 -23.41534802 67.59475591 -12 57 C-3.82211358 47.69877753 -0.97601722 37.47158231 -0.68359375 25.29296875 C-0.6524221 24.20487663 -0.6524221 24.20487663 -0.62062073 23.09480286 C-0.55557785 20.79245887 -0.49645227 18.49000718 -0.4375 16.1875 C-0.39427165 14.62043186 -0.35065602 13.05337435 -0.30664062 11.48632812 C-0.19994332 7.65766064 -0.09855031 3.8288855 0 0 Z M-44 160 C-47.0669661 162.76026949 -47.75653464 165.89176739 -48.12890625 169.97265625 C-47.90502985 173.49362142 -46.27897128 175.42116407 -44 178 C-41.25981924 180.1633006 -39.51347849 180.92352448 -36.0625 181.4375 C-32.16469912 180.8806713 -30.06010349 179.43417323 -27 177 C-24.30487377 172.95731066 -24.22218117 169.7479358 -25 165 C-26.8389773 161.10859267 -29.4815121 159.2400407 -33.375 157.4375 C-37.89566249 156.8919028 -40.08302581 157.7402072 -44 160 Z " fill="#FFDE57" transform="translate(207,69)"/>
<path d="M0 0 C3.21828493 0.00314901 6.43563709 -0.02035498 9.65380859 -0.0456543 C62.17917907 -0.2051519 62.17917907 -0.2051519 75.61865234 12.31567383 C76.68115234 16.12817383 76.68115234 16.12817383 76.61865234 19.31567383 C52.35704282 39.16608162 3.73701054 34.99075568 -25.19482422 32.30444336 C-58.48022786 28.77132298 -58.48022786 28.77132298 -67.63134766 20.87817383 C-69.38134766 18.31567383 -69.38134766 18.31567383 -69.50634766 15.75317383 C-67.23052968 10.82223488 -63.29666306 9.13998276 -58.44384766 7.25317383 C-39.50951404 0.80690537 -19.81346684 -0.04035025 0 0 Z " fill="#9E9E9E" transform="translate(131.38134765625,292.684326171875)"/>
<path d="M0 0 C7.52605582 -0.16448398 14.79209231 0.24231201 22.25 1.25 C23.74781006 1.45133545 23.74781006 1.45133545 25.27587891 1.65673828 C50.7765779 5.2703308 50.7765779 5.2703308 58 12 C59.0625 15.8125 59.0625 15.8125 59 19 C40.32059705 34.28314787 7.57450127 33.14007657 -15.25 33.25 C-16.47050049 33.25926514 -17.69100098 33.26853027 -18.94848633 33.27807617 C-20.08439209 33.27396729 -21.22029785 33.2698584 -22.390625 33.265625 C-23.40157227 33.26336914 -24.41251953 33.26111328 -25.45410156 33.25878906 C-28 33 -28 33 -31 31 C-27.3248066 28.54987107 -24.27263384 28.51251142 -20 28.3125 C-18.86510132 28.25171265 -18.86510132 28.25171265 -17.70727539 28.18969727 C-11.73774814 27.92005659 -5.92406841 28.16832733 0 29 C0 28.34 0 27.68 0 27 C2.31 27 4.62 27 7 27 C7 26.34 7 25.68 7 25 C7.66 25 8.32 25 9 25 C9 25.99 9 26.98 9 28 C10.32 27.67 11.64 27.34 13 27 C12.34 26.67 11.68 26.34 11 26 C13.76264289 25.40267181 16.16032769 25 19 25 C19.2475 24.030625 19.495 23.06125 19.75 22.0625 C20.36875 20.5465625 20.36875 20.5465625 21 19 C23.125 18.125 23.125 18.125 25 18 C24.505 14.04 24.505 14.04 24 10 C23.67 10.33 23.34 10.66 23 11 C22.01 10.01 21.02 9.02 20 8 C19.67 8.66 19.34 9.32 19 10 C16.36 9.34 13.72 8.68 11 8 C11 7.34 11 6.68 11 6 C8.69 5.34 6.38 4.68 4 4 C3.67 4.99 3.34 5.98 3 7 C3 6.34 3 5.68 3 5 C2.236875 5.20625 1.47375 5.4125 0.6875 5.625 C-2 6 -2 6 -5 4 C-5 3.34 -5 2.68 -5 2 C-3.35 2 -1.7 2 0 2 C0 1.34 0 0.68 0 0 Z " fill="#959595" transform="translate(149,293)"/>
<path d="M0 0 C0 0.66 0 1.32 0 2 C1.65 2 3.3 2 5 2 C5 2.99 5 3.98 5 5 C-4.41002278 5.18451025 -4.41002278 5.18451025 -9 4 C-9 4.66 -9 5.32 -9 6 C-11 7.625 -11 7.625 -13 9 C-13.99 8.01 -14.98 7.02 -16 6 C-16.99 6.66 -17.98 7.32 -19 8 C-20.8671875 8.5625 -20.8671875 8.5625 -22.875 9 C-26.06421954 9.74317593 -28.98314351 10.70706151 -32 12 C-32.99 12.33 -33.98 12.66 -35 13 C-35.41780879 15.37305578 -35.41780879 15.37305578 -35 18 C-32.59141286 19.8624438 -32.59141286 19.8624438 -30 21 C-29.67 20.01 -29.34 19.02 -29 18 C-28.34 18 -27.68 18 -27 18 C-27.66 21.3 -28.32 24.6 -29 28 C-27.68 28.33 -26.36 28.66 -25 29 C-24.67 28.34 -24.34 27.68 -24 27 C-21.66666667 27 -19.33333333 27 -17 27 C-17 27.66 -17 28.32 -17 29 C-14.525 29.99 -14.525 29.99 -12 31 C-15.62053928 32.81026964 -19.8499444 31.3833635 -23.75 30.8125 C-24.69705811 30.67448975 -25.64411621 30.53647949 -26.61987305 30.39428711 C-37.22262906 28.76800919 -47.68863628 26.5510053 -57 21 C-59 18 -59 18 -58.9375 15.5625 C-57.62230152 11.96762415 -56.27634434 11.03133349 -53 9 C-36.97043433 1.76614472 -17.51225785 -0.68082212 0 0 Z " fill="#8C8C8C" transform="translate(121,293)"/>
<path d="M0 0 C1.53445094 3.06890187 0.54984289 5.70094266 0 9 C0.66 9 1.32 9 2 9 C1.505 7.515 1.505 7.515 1 6 C3.3260857 5.61936779 5.66055264 5.28730055 8 5 C8.495 5.495 8.495 5.495 9 6 C9.66 5.34 10.32 4.68 11 4 C11.495 5.485 11.495 5.485 12 7 C12.99 6.67 13.98 6.34 15 6 C15.495 6.99 15.495 6.99 16 8 C-3.39690214 12.37651899 -22.36842915 14.14294539 -42.25 14.25 C-43.47074219 14.2593457 -44.69148437 14.26869141 -45.94921875 14.27832031 C-47.65271484 14.27203613 -47.65271484 14.27203613 -49.390625 14.265625 C-50.40157227 14.26336914 -51.41251953 14.26111328 -52.45410156 14.25878906 C-55 14 -55 14 -58 12 C-54.3248066 9.54987107 -51.27263384 9.51251142 -47 9.3125 C-46.24340088 9.2719751 -45.48680176 9.2314502 -44.70727539 9.18969727 C-38.73774814 8.92005659 -32.92406841 9.16832733 -27 10 C-27 9.34 -27 8.68 -27 8 C-24.69 8 -22.38 8 -20 8 C-20 7.34 -20 6.68 -20 6 C-19.34 6 -18.68 6 -18 6 C-18 6.99 -18 7.98 -18 9 C-16.68 8.67 -15.36 8.34 -14 8 C-14.66 7.67 -15.32 7.34 -16 7 C-13.23735711 6.40267181 -10.83967231 6 -8 6 C-4.04746952 4.81424086 -2.20866368 3.4873637 0 0 Z " fill="#838383" transform="translate(176,312)"/>
<path d="M0 0 C22.65606098 4.0358975 22.65606098 4.0358975 31 10 C31.8125 13.6875 31.8125 13.6875 32 17 C22.60526316 24 22.60526316 24 16 24 C15.67 21.03 15.34 18.06 15 15 C15.66 15 16.32 15 17 15 C16.20882096 13.00016466 16.20882096 13.00016466 15 11 C14.01 10.67 13.02 10.34 12 10 C12 8.35 12 6.7 12 5 C11.34 6.32 10.68 7.64 10 9 C9.67 8.01 9.34 7.02 9 6 C7.35 6.66 5.7 7.32 4 8 C4 7.34 4 6.68 4 6 C3.34 5.525625 2.68 5.05125 2 4.5625 C1.34 4.046875 0.68 3.53125 0 3 C0 2.01 0 1.02 0 0 Z " fill="#878787" transform="translate(176,295)"/>
<path d="M0 0 C0.625 2.875 0.625 2.875 1 6 C0.34 6.66 -0.32 7.32 -1 8 C-1.33333333 10.5 -1.33333333 10.5 -1 13 C-0.34 13.66 0.32 14.32 1 15 C0.01 17.475 0.01 17.475 -1 20 C-6.19926239 19.48007376 -10.63713464 17.84961927 -15 15 C-17 12 -17 12 -16.9375 9.5625 C-15.23771647 4.91642501 -11.72377378 3.355538 -7.4375 1.25 C-4 0 -4 0 0 0 Z " fill="#8C8C8C" transform="translate(79,299)"/>
<path d="M0 0 C6.07071128 -0.21898357 12.02689206 -0.03166487 18.0625 0.6875 C19.14660156 0.81511719 20.23070312 0.94273437 21.34765625 1.07421875 C24 2 24 2 25.43359375 4.45703125 C26 7 26 7 25 9 C24.34 9 23.68 9 23 9 C22.67 9.66 22.34 10.32 22 11 C21.34 10.01 20.68 9.02 20 8 C19.67 8.66 19.34 9.32 19 10 C16.36 9.34 13.72 8.68 11 8 C11 7.34 11 6.68 11 6 C8.69 5.34 6.38 4.68 4 4 C3.67 4.99 3.34 5.98 3 7 C3 6.34 3 5.68 3 5 C2.236875 5.20625 1.47375 5.4125 0.6875 5.625 C-2 6 -2 6 -5 4 C-5 3.34 -5 2.68 -5 2 C-3.35 2 -1.7 2 0 2 C0 1.34 0 0.68 0 0 Z " fill="#8B8B8B" transform="translate(149,293)"/>
<path d="M0 0 C0.66 0.66 1.32 1.32 2 2 C2.66 1.34 3.32 0.68 4 0 C4.061875 0.7425 4.12375 1.485 4.1875 2.25 C5.24185138 5.8185739 6.99909773 6.92245228 10 9 C9.67 9.515625 9.34 10.03125 9 10.5625 C7.67989123 13.78026512 7.86757895 16.5570528 8 20 C6.68 20 5.36 20 4 20 C3.67 19.34 3.34 18.68 3 18 C2.34 18.66 1.68 19.32 1 20 C-0.34061543 19.69728039 -1.67405895 19.36162029 -3 19 C-3.99 19.33 -4.98 19.66 -6 20 C-6 20.66 -6 21.32 -6 22 C-6.66 22 -7.32 22 -8 22 C-8.33 21.01 -8.66 20.02 -9 19 C-6.87197213 16.71434044 -5.05484203 15.03060951 -2.3125 13.5 C0.16633273 12.21900402 0.16633273 12.21900402 0.8125 9.8125 C0.874375 9.214375 0.93625 8.61625 1 8 C0.34 7.67 -0.32 7.34 -1 7 C-0.67 4.69 -0.34 2.38 0 0 Z " fill="#8F8F8F" transform="translate(184,299)"/>
<path d="M0 0 C2.9375 1.0625 2.9375 1.0625 6 3 C6.875 6.6875 6.875 6.6875 7 10 C-2.39473684 17 -2.39473684 17 -9 17 C-9.33 14.03 -9.66 11.06 -10 8 C-9.67 8.99 -9.34 9.98 -9 11 C-4.9899066 11.17864631 -4.9899066 11.17864631 -1 11 C-0.34 10.34 0.32 9.68 1 9 C0.6730244 6.38419521 0.17960932 4.35921863 -1 2 C-0.67 1.34 -0.34 0.68 0 0 Z " fill="#818181" transform="translate(201,302)"/>
<path d="M0 0 C1.53445094 3.06890187 0.54984289 5.70094266 0 9 C0.66 9 1.32 9 2 9 C1.67 8.01 1.34 7.02 1 6 C3.3260857 5.61936779 5.66055264 5.28730055 8 5 C8.33 5.33 8.66 5.66 9 6 C9.66 5.34 10.32 4.68 11 4 C11.33 4.99 11.66 5.98 12 7 C12.99 6.67 13.98 6.34 15 6 C15.33 6.66 15.66 7.32 16 8 C12.79363027 8.67635064 9.58463311 9.33932448 6.375 10 C5.47136719 10.19078125 4.56773437 10.3815625 3.63671875 10.578125 C-0.98203556 11.52210398 -5.25647172 12.25214768 -10 12 C-9.34 11.01 -8.68 10.02 -8 9 C-7.36707617 6.88719655 -7.36707617 6.88719655 -7 5 C-6.401875 4.9175 -5.80375 4.835 -5.1875 4.75 C-2.4033704 3.79544128 -1.56688858 2.42867729 0 0 Z " fill="#828282" transform="translate(176,312)"/>
<path d="M0 0 C0.66 0 1.32 0 2 0 C2 0.99 2 1.98 2 3 C3.32 2.67 4.64 2.34 6 2 C5.34 1.67 4.68 1.34 4 1 C6.25 0.3125 6.25 0.3125 9 0 C11.3125 1.3125 11.3125 1.3125 13 3 C13 3.66 13 4.32 13 5 C4.96311155 8.38395303 -2.85398255 7.4136348 -11 5 C-9.68 4.67 -8.36 4.34 -7 4 C-7 3.34 -7 2.68 -7 2 C-4.69 2 -2.38 2 0 2 C0 1.34 0 0.68 0 0 Z " fill="#898989" transform="translate(156,318)"/>
<path d="M0 0 C0.99 0.99 1.98 1.98 3 3 C2.67 3.99 2.34 4.98 2 6 C3.32 6.33 4.64 6.66 6 7 C6.33 6.34 6.66 5.68 7 5 C9.33333333 5 11.66666667 5 14 5 C14 5.66 14 6.32 14 7 C15.65 7.66 17.3 8.32 19 9 C16.47122202 10.26438899 15.27357992 9.91340242 12.4921875 9.51171875 C11.58726563 9.38216797 10.68234375 9.25261719 9.75 9.11914062 C8.326875 8.90547852 8.326875 8.90547852 6.875 8.6875 C5.94945313 8.55666016 5.02390625 8.42582031 4.0703125 8.29101562 C-1.39236574 7.49244614 -6.66927555 6.43615988 -12 5 C-11.34 3.68 -10.68 2.36 -10 1 C-9.34 1.66 -8.68 2.32 -8 3 C-5.52733235 2.65555119 -5.52733235 2.65555119 -3 2 C-2.01 2 -1.02 2 0 2 C0 1.34 0 0.68 0 0 Z " fill="#828282" transform="translate(90,315)"/>
<path d="M0 0 C8.2056037 -0.29599372 15.92437827 0.56205146 24 2 C24.33 2.99 24.66 3.98 25 5 C22.36 4.67 19.72 4.34 17 4 C17 3.67 17 3.34 17 3 C12.52572076 2.91051442 8.39436211 3.14256349 4 4 C3.67 4.99 3.34 5.98 3 7 C3 6.34 3 5.68 3 5 C2.236875 5.20625 1.47375 5.4125 0.6875 5.625 C-2 6 -2 6 -5 4 C-5 3.34 -5 2.68 -5 2 C-3.35 2 -1.7 2 0 2 C0 1.34 0 0.68 0 0 Z " fill="#7B7B7B" transform="translate(149,293)"/>
<path d="M0 0 C0 4.26826873 -0.37613513 4.93882432 -3 8 C-2.1646875 8.1546875 -2.1646875 8.1546875 -1.3125 8.3125 C1 9 1 9 3.5625 10.5625 C5.95904831 12.25399251 5.95904831 12.25399251 9 12 C8.67 13.32 8.34 14.64 8 16 C2.22303837 14.45192531 -2.37093059 13.08069717 -6 8 C-6 4.93119845 -5.45851441 3.57812687 -3.5625 1.1875 C-2 0 -2 0 0 0 Z " fill="#717171" transform="translate(68,303)"/>
<path d="M0 0 C0.625 2.875 0.625 2.875 1 6 C0.34 6.66 -0.32 7.32 -1 8 C-1.69748583 9.31747324 -2.36959957 10.64914193 -3 12 C-3 10.68 -3 9.36 -3 8 C-3.99 8 -4.98 8 -6 8 C-5.67 9.98 -5.34 11.96 -5 14 C-5.99 13.67 -6.98 13.34 -8 13 C-8 11.35 -8 9.7 -8 8 C-7.01 7.67 -6.02 7.34 -5 7 C-7.05233685 4.7522025 -8.00667261 3.9977758 -11 3 C-4.5 0 -4.5 0 0 0 Z " fill="#7C7C7C" transform="translate(79,299)"/>
<path d="M0 0 C4.95 0.99 9.9 1.98 15 3 C14.01 4.485 14.01 4.485 13 6 C12.67 5.67 12.34 5.34 12 5 C11.34 6.32 10.68 7.64 10 9 C9.67 8.01 9.34 7.02 9 6 C7.35 6.66 5.7 7.32 4 8 C4 7.34 4 6.68 4 6 C3.34 5.525625 2.68 5.05125 2 4.5625 C1.34 4.046875 0.68 3.53125 0 3 C0 2.01 0 1.02 0 0 Z " fill="#7E7E7E" transform="translate(176,295)"/>
<path d="M0 0 C0.66 0.66 1.32 1.32 2 2 C3.98821313 2.39764263 5.98944339 2.73775349 8 3 C7 6 7 6 5.375 7.1875 C2.19617272 8.27499354 -0.66661533 8.1282071 -4 8 C-4.33 7.34 -4.66 6.68 -5 6 C-4.67 5.34 -4.34 4.68 -4 4 C-3.01 4 -2.02 4 -1 4 C-0.67 2.68 -0.34 1.36 0 0 Z " fill="#888888" transform="translate(113,317)"/>
<path d="M0 0 C0.66 0.33 1.32 0.66 2 1 C2 1.66 2 2.32 2 3 C2.99 2.67 3.98 2.34 5 2 C5.33 2.66 5.66 3.32 6 4 C-1.425 5.485 -1.425 5.485 -9 7 C-9 5.35 -9 3.7 -9 2 C-6.6739143 1.61936779 -4.33944736 1.28730055 -2 1 C-1.67 1.33 -1.34 1.66 -1 2 C-0.67 1.34 -0.34 0.68 0 0 Z " fill="#797979" transform="translate(186,316)"/>
<path d="M0 0 C7.92 0 15.84 0 24 0 C19.59860423 3.30104683 17.20278568 3.45982803 12 3.375 C10.93265625 3.39240234 10.93265625 3.39240234 9.84375 3.41015625 C5.13735625 3.38381449 3.94899775 2.96174832 0 0 Z " fill="#838383" transform="translate(123,293)"/>
<path d="M0 0 C2.9375 1.0625 2.9375 1.0625 6 3 C6.875 6.6875 6.875 6.6875 7 10 C4.525 11.485 4.525 11.485 2 13 C2.2475 11.9275 2.495 10.855 2.75 9.75 C3.42428622 5.97254504 3.42428622 5.97254504 1.0625 3.5625 C0.381875 3.046875 -0.29875 2.53125 -1 2 C-0.67 1.34 -0.34 0.68 0 0 Z " fill="#626262" transform="translate(201,302)"/>
<path d="M0 0 C2.66666667 0 5.33333333 0 8 0 C8 0.66 8 1.32 8 2 C10.475 2.99 10.475 2.99 13 4 C9.75432383 5.62283808 6.36160376 4.54725234 2.875 4.0625 C2.12089844 3.96259766 1.36679688 3.86269531 0.58984375 3.75976562 C-1.27417753 3.51201596 -3.13719288 3.25671943 -5 3 C-5 2.34 -5 1.68 -5 1 C-2.525 1.495 -2.525 1.495 0 2 C0 1.34 0 0.68 0 0 Z " fill="#6B6B6B" transform="translate(96,320)"/>
<path d="M0 0 C2.64 0 5.28 0 8 0 C8 0.66 8 1.32 8 2 C9.98 2.66 11.96 3.32 14 4 C13.01 5.485 13.01 5.485 12 7 C9.36 6.34 6.72 5.68 4 5 C4 4.34 4 3.68 4 3 C2.68 2.67 1.36 2.34 0 2 C0 1.34 0 0.68 0 0 Z " fill="#8E8E8E" transform="translate(156,296)"/>
<path d="M0 0 C0.33 0.66 0.66 1.32 1 2 C1.99 1.67 2.98 1.34 4 1 C6.6875 1.9375 6.6875 1.9375 9 3 C8.34 4.32 7.68 5.64 7 7 C3.88742431 7 1.89234315 6.82638376 -1 6 C-1.042721 4.33388095 -1.04063832 2.66617115 -1 1 C-0.67 0.67 -0.34 0.34 0 0 Z " fill="#8E8E8E" transform="translate(93,315)"/>
<path d="M0 0 C0 0.99 0 1.98 0 3 C-1.1446875 3.1546875 -1.1446875 3.1546875 -2.3125 3.3125 C-5.21894395 4.05600892 -6.03566029 4.84858032 -8 7 C-8.66 7 -9.32 7 -10 7 C-10.33 6.34 -10.66 5.68 -11 5 C-11.99 5.495 -11.99 5.495 -13 6 C-13.33 5.01 -13.66 4.02 -14 3 C-7.07 1.515 -7.07 1.515 0 0 Z " fill="#6E6E6E" transform="translate(93,295)"/>
<path d="M0 0 C0.66 1.32 1.32 2.64 2 4 C-8 4 -8 4 -10 3 C-10 2.34 -10 1.68 -10 1 C-6.52674819 -0.1577506 -3.63932552 -0.06866652 0 0 Z " fill="#7C7C7C" transform="translate(107,294)"/>
<path d="M0 0 C0.66 0 1.32 0 2 0 C1.42655063 2.86724686 1.1385485 3.8614515 -1 6 C-1.99 6.495 -1.99 6.495 -3 7 C-3.33 7.66 -3.66 8.32 -4 9 C-5.0625 6.625 -5.0625 6.625 -6 4 C-5.67 3.34 -5.34 2.68 -5 2 C-3.02 2.495 -3.02 2.495 -1 3 C-0.67 2.01 -0.34 1.02 0 0 Z " fill="#919191" transform="translate(92,311)"/>
<path d="M0 0 C0 0.99 0 1.98 0 3 C-3.01031744 3.93423645 -3.86650268 4.04449911 -7 3 C-7 2.01 -7 1.02 -7 0 C-7.66 -0.33 -8.32 -0.66 -9 -1 C-5.38055101 -2.34053666 -3.42632833 -1.61798838 0 0 Z " fill="#8C8C8C" transform="translate(169,320)"/>
<path d="M0 0 C1.6396875 0.0928125 1.6396875 0.0928125 3.3125 0.1875 C2.9825 1.5075 2.6525 2.8275 2.3125 4.1875 C-0.6575 3.8575 -3.6275 3.5275 -6.6875 3.1875 C-3.6875 0.1875 -3.6875 0.1875 0 0 Z " fill="#646464" transform="translate(124.6875,321.8125)"/>
<path d="M0 0 C2.97 0 5.94 0 9 0 C9 0.99 9 1.98 9 3 C6.03 3 3.06 3 0 3 C0 2.01 0 1.02 0 0 Z " fill="#8B8B8B" transform="translate(117,295)"/>
<path d="M0 0 C0 4 0 4 -1.875 6.25 C-4 8 -4 8 -6 8 C-5.62403791 5.21788056 -5.32681541 3.4120716 -3.5625 1.1875 C-2 0 -2 0 0 0 Z " fill="#555555" transform="translate(68,303)"/>
<path d="M0 0 C1.98 0.99 1.98 0.99 4 2 C4 4.97 4 7.94 4 11 C1.6870518 8.6870518 1.50419025 7.52095125 0.875 4.375 C0.70742187 3.55773437 0.53984375 2.74046875 0.3671875 1.8984375 C0.24601563 1.27195312 0.12484375 0.64546875 0 0 Z " fill="#7D7D7D" transform="translate(197,300)"/>
<path d="M0 0 C2.33944736 0.28730055 4.6739143 0.61936779 7 1 C6.01 2.485 6.01 2.485 5 4 C4.67 3.67 4.34 3.34 4 3 C3.34 4.32 2.68 5.64 2 7 C1.87625 6.195625 1.7525 5.39125 1.625 4.5625 C1.315625 3.2940625 1.315625 3.2940625 1 2 C0.34 1.67 -0.32 1.34 -1 1 C-0.67 0.67 -0.34 0.34 0 0 Z " fill="#6E6E6E" transform="translate(184,297)"/>
<path d="M0 0 C0.66 0 1.32 0 2 0 C1.67 1.65 1.34 3.3 1 5 C-4.75 4.25 -4.75 4.25 -7 2 C-4.69 2 -2.38 2 0 2 C0 1.34 0 0.68 0 0 Z " fill="#8D8D8D" transform="translate(156,318)"/>
<path d="M0 0 C0.66 0.66 1.32 1.32 2 2 C2.66 1.67 3.32 1.34 4 1 C4 1.66 4 2.32 4 3 C4.66 3 5.32 3 6 3 C6 3.66 6 4.32 6 5 C3.36 4.67 0.72 4.34 -2 4 C-1.34 2.68 -0.68 1.36 0 0 Z " fill="#707070" transform="translate(80,316)"/>
<path d="M0 0 C0.33 0.66 0.66 1.32 1 2 C1.66 2.33 2.32 2.66 3 3 C2.67 3.99 2.34 4.98 2 6 C0.68 5.67 -0.64 5.34 -2 5 C-1.125 1.125 -1.125 1.125 0 0 Z " fill="#8D8D8D" transform="translate(106,317)"/>
<path d="M0 0 C1.98 0.66 3.96 1.32 6 2 C5.01 3.485 5.01 3.485 4 5 C2.02 4.34 0.04 3.68 -2 3 C-1.34 2.67 -0.68 2.34 0 2 C0 1.34 0 0.68 0 0 Z " fill="#949494" transform="translate(164,298)"/>
<path d="M0 0 C1.98 0.66 3.96 1.32 6 2 C4 4 4 4 1.8359375 4.1953125 C0.61777344 4.16050781 0.61777344 4.16050781 -0.625 4.125 C-1.44226563 4.10695313 -2.25953125 4.08890625 -3.1015625 4.0703125 C-3.72804687 4.04710937 -4.35453125 4.02390625 -5 4 C-5 3.67 -5 3.34 -5 3 C-3.02 3 -1.04 3 1 3 C0.67 2.01 0.34 1.02 0 0 Z " fill="#727272" transform="translate(159,321)"/>
<path d="M0 0 C0.66 0.33 1.32 0.66 2 1 C2 1.66 2 2.32 2 3 C2.99 2.67 3.98 2.34 5 2 C5.33 2.66 5.66 3.32 6 4 C3.36 4.33 0.72 4.66 -2 5 C-1.34 3.35 -0.68 1.7 0 0 Z " fill="#646464" transform="translate(186,316)"/>
<path d="M0 0 C0.66 0.33 1.32 0.66 2 1 C0.35 2.65 -1.3 4.3 -3 6 C-3.66 5.67 -4.32 5.34 -5 5 C-4 2 -4 2 -2.0625 0.75 C-1.381875 0.5025 -0.70125 0.255 0 0 Z " fill="#8A8A8A" transform="translate(90,297)"/>
<path d="M0 0 C0.66 0.33 1.32 0.66 2 1 C1.6875 3.375 1.6875 3.375 1 6 C0.01 6.66 -0.98 7.32 -2 8 C-2.33 7.34 -2.66 6.68 -3 6 C-2.34 5.34 -1.68 4.68 -1 4 C-0.3574765 1.93125966 -0.3574765 1.93125966 0 0 Z " fill="#909090" transform="translate(201,306)"/>
<path d="M0 0 C0.99 0.33 1.98 0.66 3 1 C2.34 2.98 1.68 4.96 1 7 C0.67 6.01 0.34 5.02 0 4 C-0.66 3.67 -1.32 3.34 -2 3 C-1.34 2.01 -0.68 1.02 0 0 Z " fill="#868686" transform="translate(68,303)"/>
</svg>
