<?xml version="1.0" encoding="UTF-8"?>
<svg version="1.1" xmlns="http://www.w3.org/2000/svg" width="101" height="100">
<path d="M0 0 C9.57 0 19.14 0 29 0 C29 3.3 29 6.6 29 10 C32.3 10 35.6 10 39 10 C39 23.86 39 37.72 39 52 C26.13 52 13.26 52 0 52 C0 34.84 0 17.68 0 0 Z M5 7 C5 7.33 5 7.66 5 8 C11.6 8 18.2 8 25 8 C25 7.67 25 7.34 25 7 C18.4 7 11.8 7 5 7 Z M5 15 C5 15.33 5 15.66 5 16 C14.57 16 24.14 16 34 16 C34 15.67 34 15.34 34 15 C24.43 15 14.86 15 5 15 Z M5 24 C5 24.33 5 24.66 5 25 C14.57 25 24.14 25 34 25 C34 24.67 34 24.34 34 24 C24.43 24 14.86 24 5 24 Z M5 33 C5 33.66 5 34.32 5 35 C14.57 35 24.14 35 34 35 C33.67 34.34 33.34 33.68 33 33 C23.76 33 14.52 33 5 33 Z M5 43 C5 43.33 5 43.66 5 44 C14.57 44 24.14 44 34 44 C34 43.67 34 43.34 34 43 C24.43 43 14.86 43 5 43 Z " fill="#7B2987" transform="translate(59,0)"/>
<path d="M0 0 C1.32 0 2.64 0 4 0 C4 16.17 4 32.34 4 49 C15.22 49 26.44 49 38 49 C38 50.32 38 51.64 38 53 C25.46 53 12.92 53 0 53 C0 35.51 0 18.02 0 0 Z " fill="#7C2987" transform="translate(54,5)"/>
<path d="M0 0 C0.66 0 1.32 0 2 0 C2.66 1.98 3.32 3.96 4 6 C6.31 6 8.62 6 11 6 C11 6.99 11 7.98 11 9 C9.35 9 7.7 9 6 9 C5.67 10.98 5.34 12.96 5 15 C4.01 15 3.02 15 2 15 C1.34 14.01 0.68 13.02 0 12 C-1.32 12 -2.64 12 -4 12 C-4.33 11.67 -4.66 11.34 -5 11 C-6.66617115 10.95936168 -8.33388095 10.957279 -10 11 C-9.87625 12.546875 -9.87625 12.546875 -9.75 14.125 C-10.04664442 18.72298851 -11.00876341 20.53646289 -14 24 C-15.051875 24.515625 -16.10375 25.03125 -17.1875 25.5625 C-20.25647253 26.7138186 -20.25647253 26.7138186 -20.875 29.6875 C-20.91625 30.450625 -20.9575 31.21375 -21 32 C-22.32 32 -23.64 32 -25 32 C-25.061875 30.8553125 -25.061875 30.8553125 -25.125 29.6875 C-25.74352747 26.7138186 -25.74352747 26.7138186 -28.8125 25.5625 C-30.3903125 24.7890625 -30.3903125 24.7890625 -32 24 C-35.45384444 20.27348363 -36.23601162 17.56989137 -36.25 12.625 C-36.18629371 11.08239763 -36.10956696 9.54002456 -36 8 C-35.34 8 -34.68 8 -34 8 C-33.90203125 8.67546875 -33.8040625 9.3509375 -33.703125 10.046875 C-32.63891862 16.97857419 -32.63891862 16.97857419 -28 22 C-25.17998673 23.41000664 -23.12992745 23.24548451 -20 23 C-16.88474342 21.65477557 -15.40430166 20.72774299 -13.75 17.75 C-12.86853328 14.51795537 -12.39113896 11.32468113 -12 8 C-10.824375 7.8453125 -10.824375 7.8453125 -9.625 7.6875 C-6.66954819 7.22404978 -6.66954819 7.22404978 -5 4 C-4.01 4 -3.02 4 -2 4 C-1.34 2.68 -0.68 1.36 0 0 Z " fill="#A7C954" transform="translate(43,62)"/>
<path d="M0 0 C2.9336317 0.60841232 4.19624742 2.00599639 5.90234375 4.39453125 C7.44801945 9.03155836 6.95970003 13.51924776 6.90234375 18.39453125 C1.29234375 18.39453125 -4.31765625 18.39453125 -10.09765625 18.39453125 C-10.09765625 16.08453125 -10.09765625 13.77453125 -10.09765625 11.39453125 C-8.11765625 11.39453125 -6.13765625 11.39453125 -4.09765625 11.39453125 C-4.09765625 10.73453125 -4.09765625 10.07453125 -4.09765625 9.39453125 C-6.07765625 9.39453125 -8.05765625 9.39453125 -10.09765625 9.39453125 C-10.44747837 6.24613219 -10.34398849 4.77429346 -8.59765625 2.08203125 C-5.54715074 0.02294003 -3.61773924 -0.1818975 0 0 Z " fill="#A7CA54" transform="translate(22.09765625,51.60546875)"/>
<path d="M0 0 C0.66 0 1.32 0 2 0 C2.086985 3.77068832 2.14038579 7.54111932 2.1875 11.3125 C2.21263672 12.38435547 2.23777344 13.45621094 2.26367188 14.56054688 C2.27333984 15.58857422 2.28300781 16.61660156 2.29296875 17.67578125 C2.3086792 18.62364502 2.32438965 19.57150879 2.34057617 20.5480957 C2 23 2 23 0.73242188 24.81445312 C-1.37053877 26.2535705 -2.48182835 26.35003395 -5.01171875 26.29296875 C-5.76904297 26.28330078 -6.52636719 26.27363281 -7.30664062 26.26367188 C-8.09232422 26.23853516 -8.87800781 26.21339844 -9.6875 26.1875 C-10.88342773 26.16719727 -10.88342773 26.16719727 -12.10351562 26.14648438 C-14.06929967 26.11117089 -16.03473582 26.05736447 -18 26 C-18 26.99 -18 27.98 -18 29 C-21.82097239 28.46930939 -24.06171403 27.50298434 -27 25 C-26 22 -26 22 -23.0625 20.3125 C-20 19 -20 19 -18 19 C-18 20.32 -18 21.64 -18 23 C-12.72 22.67 -7.44 22.34 -2 22 C-1.90912109 19.74349609 -1.90912109 19.74349609 -1.81640625 17.44140625 C-1.73201957 15.48176011 -1.64737065 13.52212524 -1.5625 11.5625 C-1.52318359 10.56927734 -1.48386719 9.57605469 -1.44335938 8.55273438 C-1.40146484 7.60849609 -1.35957031 6.66425781 -1.31640625 5.69140625 C-1.27974854 4.81685791 -1.24309082 3.94230957 -1.20532227 3.04125977 C-1 1 -1 1 0 0 Z " fill="#7B2987" transform="translate(80,63)"/>
<path d="M0 0 C2.64 1.32 5.28 2.64 8 4 C8 4.99 8 5.98 8 7 C4.66696609 9.49977543 3.26696398 10 -1 10 C-1 9.01 -1 8.02 -1 7 C-8.92 7.495 -8.92 7.495 -17 8 C-17.33 14.93 -17.66 21.86 -18 29 C-18.99 29 -19.98 29 -21 29 C-21.08701039 25.39598519 -21.14039388 21.79223988 -21.1875 18.1875 C-21.21263672 17.16333984 -21.23777344 16.13917969 -21.26367188 15.08398438 C-21.27333984 14.10107422 -21.28300781 13.11816406 -21.29296875 12.10546875 C-21.3086792 11.19949951 -21.32438965 10.29353027 -21.34057617 9.36010742 C-21 7 -21 7 -19.73242188 5.19921875 C-17.62884849 3.74308114 -16.52739131 3.64975809 -13.98828125 3.70703125 C-13.23095703 3.71669922 -12.47363281 3.72636719 -11.69335938 3.73632812 C-10.90767578 3.76146484 -10.12199219 3.78660156 -9.3125 3.8125 C-8.11657227 3.83280273 -8.11657227 3.83280273 -6.89648438 3.85351562 C-4.93070033 3.88882911 -2.96526418 3.94263553 -1 4 C-0.67 2.68 -0.34 1.36 0 0 Z " fill="#7B2987" transform="translate(40,5)"/>
<path d="M0 0 C5.61 0 11.22 0 17 0 C16 8 16 8 14.375 10.5 C11.01588382 12.62154706 8.90346989 12.54785542 5 12 C2.0625 10.5 2.0625 10.5 0 8 C0 5.36 0 2.72 0 0 Z " fill="#A7CA54" transform="translate(12,72)"/>
<path d="M0 0 C6.6 0 13.2 0 20 0 C20.33 1.65 20.66 3.3 21 5 C13.74 5 6.48 5 -1 5 C-0.67 3.35 -0.34 1.7 0 0 Z " fill="#A7C955" transform="translate(10,95)"/>
<path d="M0 0 C1.65 0 3.3 0 5 0 C5.103125 0.639375 5.20625 1.27875 5.3125 1.9375 C5.539375 2.618125 5.76625 3.29875 6 4 C6.99 4.33 7.98 4.66 9 5 C8.67 6.98 8.34 8.96 8 11 C7.34 11 6.68 11 6 11 C5.67 9.68 5.34 8.36 5 7 C3.35 6.67 1.7 6.34 0 6 C-1.125 2.25 -1.125 2.25 0 0 Z " fill="#7B2986" transform="translate(5,41)"/>
<path d="M0 0 C1.65 0 3.3 0 5 0 C6.125 3.75 6.125 3.75 5 6 C3.35 6 1.7 6 0 6 C-0.33 7.65 -0.66 9.3 -1 11 C-1.66 11 -2.32 11 -3 11 C-3 8.69 -3 6.38 -3 4 C-2.34 4 -1.68 4 -1 4 C-0.67 2.68 -0.34 1.36 0 0 Z " fill="#7B2987" transform="translate(30,41)"/>
<path d="M0 0 C1.67542976 0.28604898 3.34385343 0.61781233 5 1 C4.67 3.97 4.34 6.94 4 10 C3.01 10.33 2.02 10.66 1 11 C-0.59555725 7.50971852 -1.32049797 4.84597567 -1 1 C-0.67 0.67 -0.34 0.34 0 0 Z " fill="#7B2987" transform="translate(18,38)"/>
<path d="M0 0 C1.1725131 0.95117134 2.33787015 1.91117009 3.5 2.875 C4.47453125 3.67550781 4.47453125 3.67550781 5.46875 4.4921875 C5.9740625 4.98976563 6.479375 5.48734375 7 6 C7 6.66 7 7.32 7 8 C4.69 8 2.38 8 0 8 C0 5.36 0 2.72 0 0 Z " fill="#7C2887" transform="translate(89,1)"/>
</svg>
