<?xml version="1.0" encoding="UTF-8"?>
<svg version="1.1" xmlns="http://www.w3.org/2000/svg" width="89" height="90">
<path d="M0 0 C2.4375 0.3125 2.4375 0.3125 4.4375 2.3125 C4.40424646 5.69327661 3.86832516 8.95206379 3.4375 12.3125 C8.3875 12.3125 13.3375 12.3125 18.4375 12.3125 C17.9425 10.8275 17.9425 10.8275 17.4375 9.3125 C17.25 5.75 17.25 5.75 17.4375 2.3125 C19.4375 0.3125 19.4375 0.3125 21.7265625 -0.15625 C25.63186285 0.51901807 27.3725437 2.91305459 29.8125 5.8125 C30.29219238 6.35986816 30.77188477 6.90723633 31.26611328 7.47119141 C32.22640176 8.56963231 33.18079814 9.67325524 34.12890625 10.78222656 C35.83147045 12.77321022 37.57400808 14.72788411 39.3125 16.6875 C48.93869048 27.79464286 48.93869048 27.79464286 48.4375 35.3125 C47.17994162 38.75423874 46.05830644 40.76472961 43.3125 43.1875 C39.25484192 44.77527925 35.73645113 44.97212742 31.4375 44.3125 C27.2729415 42.46158511 25.8185636 41.06051374 23.75 37 C21.70802099 30.61881558 20.66921881 23.88166697 19.4375 17.3125 C13.8275 17.3125 8.2175 17.3125 2.4375 17.3125 C2.19515625 18.61445312 1.9528125 19.91640625 1.703125 21.2578125 C1.36529213 22.98451383 1.02671081 24.71106884 0.6875 26.4375 C0.45160156 27.72140625 0.45160156 27.72140625 0.2109375 29.03125 C-0.85365944 34.35423468 -2.11221905 38.08524738 -5.5625 42.3125 C-9.82494919 45.1541328 -13.56217088 44.81653317 -18.5625 44.3125 C-22.16847575 42.93148801 -23.2536324 41.7811267 -25.375 38.5625 C-26.75567311 34.78381569 -27.06195097 32.30810775 -26.5625 28.3125 C-24.1447498 23.57773919 -20.55815924 20.2577275 -16.7890625 16.6015625 C-13.45836629 13.17737307 -10.51793732 9.4636594 -7.54296875 5.73046875 C-3.16554675 0.38604229 -3.16554675 0.38604229 0 0 Z M-20.5625 25.3125 C-22.87391604 28.16324644 -23.5625 29.6264451 -23.5625 33.3125 C-22.27008271 37.18975186 -20.8481634 38.88396618 -17.5625 41.3125 C-13.25975091 42.00401325 -11.35304688 41.82807405 -7.6875 39.4375 C-5.16385348 36.91385348 -4.62762297 36.04513343 -4.3125 32.5 C-4.59911409 28.84567034 -5.2715885 27.15639014 -7.5625 24.3125 C-12.75521635 21.58632391 -15.84199648 21.89013494 -20.5625 25.3125 Z M28.4375 25.3125 C26.05050715 28.45899057 25.96498634 31.45363846 26.4375 35.3125 C28.23743774 38.01240662 29.521273 39.8543865 32.4375 41.3125 C37.05755487 41.72317154 39.7920071 41.24914706 43.4375 38.3125 C44.90414648 35.89750543 44.90414648 35.89750543 45.4375 33.3125 C45.1075 32.3225 44.7775 31.3325 44.4375 30.3125 C43.4475 31.3025 42.4575 32.2925 41.4375 33.3125 C41.19 32.508125 40.9425 31.70375 40.6875 30.875 C39.71511141 28.141419 39.71511141 28.141419 37.3125 27.5 C36.384375 27.4071875 36.384375 27.4071875 35.4375 27.3125 C35.7675 25.6625 36.0975 24.0125 36.4375 22.3125 C33.25666096 22.3125 31.14571597 23.73270735 28.4375 25.3125 Z M37.4375 23.3125 C39.4175 24.3025 39.4175 24.3025 41.4375 25.3125 C41.1075 24.6525 40.7775 23.9925 40.4375 23.3125 C39.4475 23.3125 38.4575 23.3125 37.4375 23.3125 Z M43.4375 27.3125 C44.4375 29.3125 44.4375 29.3125 44.4375 29.3125 Z " fill="#7B2987" transform="translate(33.5625,45.6875)"/>
<path d="M0 0 C4.62 0 9.24 0 14 0 C14 12.87 14 25.74 14 39 C18.29 39 22.58 39 27 39 C27.33 40.32 27.66 41.64 28 43 C17.14844551 44.31816429 17.14844551 44.31816429 12 43 C8.04981262 39.8732026 5.66238648 36.22921623 3 32 C2.47599609 31.58621094 1.95199219 31.17242187 1.41210938 30.74609375 C-0.75689131 28.0640929 -0.33744883 25.75859389 -0.29296875 22.36328125 C-0.2784668 20.41518555 -0.2784668 20.41518555 -0.26367188 18.42773438 C-0.23860585 17.05598361 -0.21321101 15.68423882 -0.1875 14.3125 C-0.1724502 12.92905076 -0.1587623 11.54558599 -0.14648438 10.16210938 C-0.11107458 6.77457274 -0.05726701 3.38723763 0 0 Z " fill="#7B2987" transform="translate(61,19)"/>
<path d="M0 0 C3.0625 0.1875 3.0625 0.1875 5.0625 2.1875 C5.3125 5.1875 5.3125 5.1875 5.0625 8.1875 C4.4025 8.8475 3.7425 9.5075 3.0625 10.1875 C2.175625 10.105 1.28875 10.0225 0.375 9.9375 C-3.84510534 10.25599852 -5.49676045 11.71245542 -8.53125 14.52734375 C-10.34003141 16.6627107 -10.70754024 18.42798292 -10.9375 21.1875 C-12.9375 23.1875 -12.9375 23.1875 -15.3125 23.625 C-17.9375 23.1875 -17.9375 23.1875 -19.875 20.75 C-21.72181783 17.96793734 -21.72181783 17.96793734 -24.75 17.3125 C-31.3022233 17.05555007 -34.99105657 17.80636439 -39.9375 22.1875 C-40.5975 22.1875 -41.2575 22.1875 -41.9375 22.1875 C-41.875625 23.363125 -41.875625 23.363125 -41.8125 24.5625 C-41.9375 27.1875 -41.9375 27.1875 -43.9375 29.1875 C-46.9375 29.4375 -46.9375 29.4375 -49.9375 29.1875 C-51.9375 27.1875 -51.9375 27.1875 -52.25 24.1875 C-52.146875 23.1975 -52.04375 22.2075 -51.9375 21.1875 C-48.9375 19.1875 -48.9375 19.1875 -46.6875 19.4375 C-42.34192875 19.04244807 -39.80160687 16.3402378 -36.9375 13.1875 C-35.53930488 10.5360518 -35.53930488 10.5360518 -34.9375 8.1875 C-34.6075 7.8575 -34.2775 7.5275 -33.9375 7.1875 C-30.5 7.375 -30.5 7.375 -26.9375 8.1875 C-26.23812468 9.50397119 -25.57020867 10.83772151 -24.9375 12.1875 C-20.43846108 13.54767456 -16.46979368 13.32057342 -11.9375 12.1875 C-7.22265509 9.07392317 -5.30258934 6.64785736 -3.9375 1.1875 C-2.9375 0.1875 -2.9375 0.1875 0 0 Z " fill="#A7C954" transform="translate(67.9375,-0.1875)"/>
<path d="M0 0 C10.05859375 -0.09765625 10.05859375 -0.09765625 13 0 C14 1 14 1 14.11352539 3.59204102 C14.10828857 4.71795654 14.10305176 5.84387207 14.09765625 7.00390625 C14.09443359 8.21884766 14.09121094 9.43378906 14.08789062 10.68554688 C14.07951172 11.96494141 14.07113281 13.24433594 14.0625 14.5625 C14.05798828 15.84576172 14.05347656 17.12902344 14.04882812 18.45117188 C14.03699545 21.63416022 14.02051068 24.81705762 14 28 C12.35 28 10.7 28 9 28 C9.061875 26.741875 9.12375 25.48375 9.1875 24.1875 C9.17106609 20.93816354 9.17106609 20.93816354 7.875 18 C5.47181373 16.52941176 5.47181373 16.52941176 0 17 C0 11.39 0 5.78 0 0 Z " fill="#7C2987" transform="translate(30,28)"/>
<path d="M0 0 C4.62 0 9.24 0 14 0 C15.29823167 7.08126366 15.29823167 7.08126366 12.93652344 10.57177734 C10.61417533 13.37018163 8.08525146 15.93790529 5.50390625 18.49609375 C3.00041175 20.73565335 3.00041175 20.73565335 2 23 C-3.28 23 -8.56 23 -14 23 C-13.67 21.68 -13.34 20.36 -13 19 C-8.71 19 -4.42 19 0 19 C0 12.73 0 6.46 0 0 Z " fill="#7B2987" transform="translate(14,39)"/>
<path d="M0 0 C4.62 0 9.24 0 14 0 C14 4.29 14 8.58 14 13 C12.02 13 10.04 13 8 13 C5.96117905 13.87129307 5.96117905 13.87129307 5 16 C4.75868793 18.71878263 4.8652071 21.2592111 5 24 C3.35 24 1.7 24 0 24 C0 16.08 0 8.16 0 0 Z " fill="#7B2987" transform="translate(45,32)"/>
<path d="M0 0 C-0.33 0.99 -0.66 1.98 -1 3 C-1.639375 3.309375 -2.27875 3.61875 -2.9375 3.9375 C-5.45468915 5.2342338 -5.96886948 6.4221737 -7 9 C-7.99 8.67 -8.98 8.34 -10 8 C-8.2565271 1.8307882 -6.61067842 -0.35733397 0 0 Z " fill="#7B2987" transform="translate(21,70)"/>
</svg>
