<?xml version="1.0" encoding="UTF-8"?>
<svg version="1.1" xmlns="http://www.w3.org/2000/svg" width="101" height="100">
<path d="M0 0 C1.0528418 0.01353516 1.0528418 0.01353516 2.12695312 0.02734375 C3.85561525 0.05086296 5.58410145 0.08673287 7.3125 0.125 C7.7765625 1.3315625 7.7765625 1.3315625 8.25 2.5625 C9.07585345 5.01580405 9.07585345 5.01580405 10.3125 6.125 C14.45526875 6.37233137 14.45526875 6.37233137 18.3125 5.125 C19.03409424 3.48136866 19.70601421 1.81449614 20.3125 0.125 C22.75066585 0.0440277 25.18614384 -0.01546972 27.625 -0.0625 C28.66043945 -0.10020508 28.66043945 -0.10020508 29.71679688 -0.13867188 C32.5692522 -0.18001181 34.76935677 -0.18536756 37.28125 1.25 C38.78686282 3.98747786 38.59991783 6.21504741 38.5 9.3125 C38.45939453 10.94251953 38.45939453 10.94251953 38.41796875 12.60546875 C38.38316406 13.43691406 38.34835938 14.26835937 38.3125 15.125 C37.72235107 15.13958252 37.13220215 15.15416504 36.52416992 15.16918945 C33.84878771 15.24368844 31.17465108 15.34033995 28.5 15.4375 C27.57123047 15.46005859 26.64246094 15.48261719 25.68554688 15.50585938 C24.79287109 15.54130859 23.90019531 15.57675781 22.98046875 15.61328125 C22.15828857 15.63946533 21.3361084 15.66564941 20.48901367 15.69262695 C17.77564983 16.23164741 17.01148803 16.9671129 15.3125 19.125 C14.86619419 21.30493142 14.86619419 21.30493142 14.94018555 23.74829102 C14.93395676 24.68258438 14.92772797 25.61687775 14.92131042 26.57948303 C14.93052017 27.58579269 14.93972992 28.59210236 14.94921875 29.62890625 C14.94872025 30.66313217 14.94822174 31.69735809 14.94770813 32.76292419 C14.95004902 34.9493095 14.95977841 37.13569748 14.97631836 39.32202148 C14.99993185 42.67781527 14.99687671 46.03281603 14.99023438 49.38867188 C14.99581026 51.51042143 15.00291957 53.63216762 15.01171875 55.75390625 C15.01080734 56.76224014 15.00989594 57.77057404 15.00895691 58.8094635 C15.02325493 60.20617531 15.02325493 60.20617531 15.0378418 61.63110352 C15.04475288 62.86329369 15.04475288 62.86329369 15.05180359 64.12037659 C15.13505658 66.35423159 15.13505658 66.35423159 17.3125 68.125 C19.53908154 68.49504294 19.53908154 68.49504294 22.1015625 68.5390625 C23.04257812 68.57773438 23.98359375 68.61640625 24.953125 68.65625 C25.93796875 68.6871875 26.9228125 68.718125 27.9375 68.75 C28.93007813 68.78867188 29.92265625 68.82734375 30.9453125 68.8671875 C33.40085385 68.9616314 35.8563841 69.04719875 38.3125 69.125 C38.36636629 71.24972576 38.40523071 73.37483652 38.4375 75.5 C38.46070313 76.68335937 38.48390625 77.86671875 38.5078125 79.0859375 C38.3125 82.125 38.3125 82.125 36.3125 84.125 C34.3323822 84.37223816 34.3323822 84.37223816 31.87866211 84.36791992 C30.50229836 84.37253487 30.50229836 84.37253487 29.09812927 84.37724304 C27.60902794 84.36646477 27.60902794 84.36646477 26.08984375 84.35546875 C25.07402725 84.35501053 24.05821075 84.35455231 23.01161194 84.3540802 C20.86214023 84.35105596 18.71267075 84.34316456 16.56323242 84.33081055 C13.26017558 84.31255624 9.95739888 84.3103008 6.65429688 84.31054688 C4.57031006 84.30563179 2.48632515 84.29980351 0.40234375 84.29296875 C-0.5924147 84.29185593 -1.58717316 84.2907431 -2.61207581 84.28959656 C-3.98371132 84.28002678 -3.98371132 84.28002678 -5.38305664 84.27026367 C-6.5964547 84.26454597 -6.5964547 84.26454597 -7.83436584 84.25871277 C-9.6875 84.125 -9.6875 84.125 -10.6875 83.125 C-10.79848644 80.61047704 -10.84488688 78.12315819 -10.84863281 75.60766602 C-10.85359772 74.82069336 -10.85856262 74.0337207 -10.86367798 73.22290039 C-10.87833545 70.60822693 -10.88510715 67.99361412 -10.890625 65.37890625 C-10.89637304 63.56908668 -10.90213081 61.75926714 -10.90789795 59.94944763 C-10.91841784 56.15045893 -10.92425418 52.35149146 -10.92773438 48.55249023 C-10.9332244 43.67511029 -10.95725903 38.79800878 -10.98570633 33.92071629 C-11.00429238 30.18132192 -11.00953612 26.44199519 -11.01107025 22.70255852 C-11.01410593 20.90394504 -11.02216503 19.105333 -11.03525543 17.3067646 C-11.0522339 14.7948678 -11.05045623 12.28365876 -11.04394531 9.77172852 C-11.0531601 9.02308029 -11.06237488 8.27443207 -11.0718689 7.50309753 C-11.05499268 5.43385315 -11.05499268 5.43385315 -10.6875 2.125 C-7.00662647 -0.32891569 -4.24394412 -0.10302759 0 0 Z " fill="#7C2987" transform="translate(20.6875,7.875)"/>
<path d="M0 0 C20.79 0 41.58 0 63 0 C63 9.9 63 19.8 63 30 C60.34391246 32.65608754 59.09695141 32.25310262 55.38867188 32.25878906 C54.21405396 32.26509338 53.03943604 32.27139771 51.82922363 32.27789307 C49.91828918 32.27182037 49.91828918 32.27182037 47.96875 32.265625 C46.66675659 32.26753845 45.36476318 32.2694519 44.02331543 32.27142334 C41.26598372 32.27437391 38.50878151 32.27007924 35.75146484 32.26074219 C32.21372927 32.24934753 28.67629713 32.25590738 25.13857269 32.26788712 C21.76944066 32.27684394 18.40039066 32.2705764 15.03125 32.265625 C13.7572937 32.26967346 12.4833374 32.27372192 11.17077637 32.27789307 C9.99615845 32.27158875 8.82154053 32.26528442 7.61132812 32.25878906 C6.5736731 32.25719788 5.53601807 32.25560669 4.46691895 32.25396729 C2 32 2 32 0 30 C0 20.1 0 10.2 0 0 Z M20.2734375 9.53125 C19.33371094 10.50578125 19.33371094 10.50578125 18.375 11.5 C17.74335937 12.1496875 17.11171875 12.799375 16.4609375 13.46875 C15.97882812 13.9740625 15.49671875 14.479375 15 15 C16.73857216 18.76690636 18.90258375 21.21232537 22 24 C22.66 24 23.32 24 24 24 C23.42647107 20.12867972 21.51295648 17.91827204 19 15 C19.825 14.21625 20.65 13.4325 21.5 12.625 C24.22988506 10.36278736 24.22988506 10.36278736 24 8 C21.86475907 7.77882569 21.86475907 7.77882569 20.2734375 9.53125 Z M32 8 C31.49411853 9.91512272 30.99551609 11.83216922 30.5 13.75 C30.2215625 14.81734375 29.943125 15.8846875 29.65625 16.984375 C28.85824011 20.13705302 28.85824011 20.13705302 29 24 C29.66 24 30.32 24 31 24 C32.32 18.72 33.64 13.44 35 8 C34.01 8 33.02 8 32 8 Z M39 8 C40.29299694 10.88437779 41.65941363 12.87219421 44 15 C42.69267618 17.91633776 41.24135944 19.75864056 39 22 C39 22.66 39 23.32 39 24 C42.82792868 22.4404735 45.36359864 20.16368164 48 17 C48.20186821 13.7701086 46.74906457 12.70944319 44.625 10.25 C42.19659323 7.67460431 42.19659323 7.67460431 39 8 Z " fill="#A7C954" transform="translate(37,43)"/>
<path d="M0 0 C0.98152039 -0.01606293 1.96304077 -0.03212585 2.9743042 -0.04867554 C7.47016744 -0.09312124 11.96588245 -0.13419872 16.46191406 -0.15722656 C18.83245669 -0.17377882 21.20294956 -0.20105888 23.57324219 -0.23925781 C26.99082336 -0.29405729 30.40723378 -0.31590715 33.82519531 -0.33056641 C34.88164246 -0.35323578 35.9380896 -0.37590515 37.02655029 -0.39926147 C45.24847887 -0.37569029 45.24847887 -0.37569029 48.93164062 2.53808594 C52.53254615 6.61176953 52.39292397 9.61790135 52.34082031 14.88037109 C52.33179688 16.05986328 52.32277344 17.23935547 52.31347656 18.45458984 C52.301875 19.35822266 52.29027344 20.26185547 52.27832031 21.19287109 C50.62832031 21.19287109 48.97832031 21.19287109 47.27832031 21.19287109 C47.22933594 20.20544922 47.18035156 19.21802734 47.12988281 18.20068359 C47.05511719 16.91935547 46.98035156 15.63802734 46.90332031 14.31787109 C46.79890625 12.40361328 46.79890625 12.40361328 46.69238281 10.45068359 C46.60590925 7.1122541 46.60590925 7.1122541 44.27832031 5.19287109 C42.199188 4.88056006 42.199188 4.88056006 39.78442383 4.91821289 C38.85328262 4.90868088 37.92214142 4.89914886 36.96278381 4.889328 C35.95444992 4.89023941 34.94611603 4.89115082 33.90722656 4.89208984 C32.87395737 4.88780472 31.84068817 4.88351959 30.77610779 4.87910461 C28.5879693 4.87335426 26.39981168 4.87286622 24.21166992 4.87719727 C20.85790473 4.88035501 17.50502307 4.856914 14.15136719 4.83154297 C12.02832143 4.82926989 9.90527329 4.82856652 7.78222656 4.82958984 C6.7759169 4.8203801 5.76960724 4.81117035 4.73280334 4.80168152 C3.3313633 4.8110247 3.3313633 4.8110247 1.90161133 4.82055664 C1.07935562 4.81992722 0.25709991 4.81929779 -0.59007263 4.81864929 C-2.74820287 5.06785842 -2.74820287 5.06785842 -4.48538208 6.23983765 C-6.3976093 9.26066669 -6.14706879 12.34906679 -6.12573242 15.8137207 C-6.13259567 16.58801926 -6.13945892 17.36231781 -6.14653015 18.16007996 C-6.16484526 20.72197765 -6.16095399 23.28326567 -6.15527344 25.84521484 C-6.15983314 27.62496643 -6.16513807 29.40471625 -6.17115784 31.1844635 C-6.18009829 34.91609852 -6.17765541 38.64751963 -6.16772461 42.37915039 C-6.15623626 47.162268 -6.17643933 51.94464723 -6.20564175 56.72766781 C-6.22398503 60.40369867 -6.223715 64.079552 -6.21800423 67.75561714 C-6.21785077 69.51907957 -6.22391537 71.28255385 -6.2362957 73.04597282 C-6.25116823 75.51199567 -6.2405572 77.97664714 -6.22338867 80.44262695 C-6.23305664 81.1715918 -6.24272461 81.90055664 -6.25268555 82.65161133 C-6.20390486 85.99634815 -5.93275755 87.89751665 -3.96717834 90.64788818 C-1.45921781 92.3734542 -0.30043026 92.68604153 2.70800781 92.6628418 C3.57570801 92.66576736 4.4434082 92.66869293 5.33740234 92.67170715 C6.26665527 92.65419907 7.1959082 92.63669098 8.15332031 92.61865234 C9.1147998 92.61536423 10.0762793 92.61207611 11.06689453 92.60868835 C13.09772519 92.59827421 15.12852619 92.57833564 17.15917969 92.54956055 C20.26676805 92.50553476 23.37358383 92.48812973 26.48144531 92.47607422 C28.45541478 92.46264756 30.42937474 92.44772388 32.40332031 92.43115234 C33.33257324 92.42376541 34.26182617 92.41637848 35.21923828 92.4087677 C36.52078857 92.38951485 36.52078857 92.38951485 37.84863281 92.36987305 C38.60934082 92.36002884 39.37004883 92.35018463 40.15380859 92.34004211 C42.61952528 92.23146578 42.61952528 92.23146578 46.27832031 91.19287109 C46.60832031 86.24287109 46.93832031 81.29287109 47.27832031 76.19287109 C49.25832031 75.69787109 49.25832031 75.69787109 51.27832031 75.19287109 C53.12774779 77.04229857 52.53750791 79.89713541 52.59082031 82.38037109 C52.54709647 88.07696273 52.26393458 91.09654532 48.27832031 95.19287109 C45.28000778 97.0239098 43.00448618 97.45428128 39.51318359 97.49926758 C38.10119186 97.52324867 38.10119186 97.52324867 36.66067505 97.54771423 C35.14496414 97.55575829 35.14496414 97.55575829 33.59863281 97.56396484 C32.55311249 97.57299332 31.50759216 97.58202179 30.4303894 97.59132385 C28.21973534 97.60582383 26.00903838 97.61471246 23.79833984 97.6184082 C20.42243906 97.63030373 17.04836664 97.67949305 13.67285156 97.72998047 C11.52312089 97.73944504 9.373379 97.74667991 7.22363281 97.75146484 C5.7139946 97.78076332 5.7139946 97.78076332 4.17385864 97.81065369 C-0.40592803 97.78128079 -3.68999431 97.73447762 -7.34326172 94.78295898 C-11.10794655 90.68323189 -10.88004141 87.67496822 -10.89868164 82.33422852 C-10.90525284 81.522668 -10.91182404 80.71110748 -10.91859436 79.87495422 C-10.938344 77.18274854 -10.94999356 74.49059868 -10.95996094 71.79833984 C-10.96403646 70.87967951 -10.96811199 69.96101917 -10.97231102 69.01452065 C-10.99317874 64.15234221 -11.00747748 59.29019206 -11.0168457 54.42797852 C-11.02791242 49.40399384 -11.06231328 44.3804518 -11.1020174 39.35662365 C-11.12815368 35.49529696 -11.13653487 31.63407621 -11.14012718 27.77266884 C-11.14500079 25.92069827 -11.15663675 24.06873267 -11.17516518 22.21684837 C-11.19949367 19.6241072 -11.19860337 17.03251746 -11.19165039 14.43969727 C-11.20446045 13.6753537 -11.21727051 12.91101013 -11.23046875 12.12350464 C-11.19438774 8.43023824 -10.83897605 6.37475117 -8.81730652 3.23994446 C-5.78499186 0.27788533 -4.12569267 0.06128882 0 0 Z " fill="#7B2987" transform="translate(13.7216796875,1.80712890625)"/>
<path d="M0 0 C1.05843613 0.00142502 2.11687225 0.00285004 3.2073822 0.00431824 C5.00418175 -0.00029671 5.00418175 -0.00029671 6.83728027 -0.00500488 C8.78573097 0.00577339 8.78573097 0.00577339 10.77354431 0.01676941 C12.1135046 0.01796116 13.45346572 0.01841438 14.79342651 0.01815796 C17.60203783 0.01972288 20.41052169 0.02801393 23.21910095 0.04142761 C26.82636726 0.05843389 30.43349363 0.0622415 34.04079533 0.06148243 C36.80736639 0.0617538 39.57390662 0.06722941 42.34046745 0.07448387 C44.31978861 0.07923043 46.29911626 0.08094855 48.27844238 0.0826416 C50.07051369 0.09221138 50.07051369 0.09221138 51.89878845 0.10197449 C52.95642899 0.10578629 54.01406952 0.10959808 55.10375977 0.11352539 C57.48838806 0.24723816 57.48838806 0.24723816 58.48838806 1.24723816 C58.48838806 5.53723816 58.48838806 9.82723816 58.48838806 14.24723816 C37.69838806 14.24723816 16.90838806 14.24723816 -4.51161194 14.24723816 C-4.51161194 0.44411424 -4.51161194 0.44411424 0 0 Z M1.48838806 4.24723816 C1.15838806 5.89723816 0.82838806 7.54723816 0.48838806 9.24723816 C1.80838806 9.57723816 3.12838806 9.90723816 4.48838806 10.24723816 C5.14838806 8.92723816 5.80838806 7.60723816 6.48838806 6.24723816 C5.82838806 5.58723816 5.16838806 4.92723816 4.48838806 4.24723816 C3.49838806 4.24723816 2.50838806 4.24723816 1.48838806 4.24723816 Z M12.48838806 4.24723816 C11.49838806 4.74223816 11.49838806 4.74223816 10.48838806 5.24723816 C10.81838806 6.89723816 11.14838806 8.54723816 11.48838806 10.24723816 C13.13838806 9.91723816 14.78838806 9.58723816 16.48838806 9.24723816 C16.22162602 7.26232174 16.22162602 7.26232174 15.48838806 5.24723816 C14.49838806 4.91723816 13.50838806 4.58723816 12.48838806 4.24723816 Z " fill="#7B2987" transform="translate(41.51161193847656,25.752761840820313)"/>
</svg>
