<?xml version="1.0" encoding="UTF-8"?>
<svg version="1.1" xmlns="http://www.w3.org/2000/svg" width="101" height="100">
<path d="M0 0 C1.52157311 0.28778244 3.04222053 0.58046001 4.5625 0.875 C5.40941406 1.03742187 6.25632812 1.19984375 7.12890625 1.3671875 C10 2 10 2 13.3203125 3.10546875 C17.60782959 4.14776324 20.97905525 3.89592047 25.3125 3.4375 C35.61948581 2.62893473 42.92458241 4.17332373 51.0234375 10.984375 C57.026071 17.10563763 59.83522587 24.95182028 60.06640625 33.4375 C59.6317797 41.86662095 56.45208202 49.04612557 50.3125 54.875 C43.20799097 60.49220994 35.99687119 62.73094498 26.95703125 62.3828125 C19.20243823 61.37891539 12.03507892 58.07639695 7 52 C1.32924072 43.75162286 -0.48400275 35.92061679 1 26 C2.08984375 23.27734375 2.08984375 23.27734375 3.3125 20.8125 C4.82377375 17.6435315 5.15901042 16.54078199 4.15234375 13.1171875 C2.79984075 10.19894931 2.79984075 10.19894931 1.234375 7.54296875 C-0.10785165 4.77781194 -0.23943584 3.0310401 0 0 Z M12 22 C12 28.93 12 35.86 12 43 C12.99 43 13.98 43 15 43 C15 36.07 15 29.14 15 22 C14.01 22 13.02 22 12 22 Z M25 22 C25 29.26 25 36.52 25 44 C25.99 44 26.98 44 28 44 C28 36.74 28 29.48 28 22 C27.01 22 26.02 22 25 22 Z M31 22 C31 29.26 31 36.52 31 44 C31.99 44 32.98 44 34 44 C34 36.74 34 29.48 34 22 C33.01 22 32.02 22 31 22 Z M44 22 C44 28.93 44 35.86 44 43 C44.99 43 45.98 43 47 43 C47 36.07 47 29.14 47 22 C46.01 22 45.02 22 44 22 Z M19 27 C19 30.96 19 34.92 19 39 C19.66 39 20.32 39 21 39 C21 35.04 21 31.08 21 27 C20.34 27 19.68 27 19 27 Z M38 27 C38 30.96 38 34.92 38 39 C38.66 39 39.32 39 40 39 C40 35.04 40 31.08 40 27 C39.34 27 38.68 27 38 27 Z " fill="#7B2987" transform="translate(40,36)"/>
<path d="M0 0 C3.73288983 3.37737651 6.99967933 6.499038 8.625 11.375 C8.61646101 14.41061185 8.49496314 17.43205129 8.3671875 20.46484375 C8.36855935 23.41818732 8.36855935 23.41818732 10.1953125 25.44140625 C11.625 27.375 11.625 27.375 11.3125 30.125 C11.085625 30.8675 10.85875 31.61 10.625 32.375 C9.79355469 32.36339844 8.96210937 32.35179687 8.10546875 32.33984375 C6.47544922 32.32630859 6.47544922 32.32630859 4.8125 32.3125 C3.73355469 32.30089844 2.65460937 32.28929687 1.54296875 32.27734375 C-1.44012169 32.23875234 -1.44012169 32.23875234 -4.375 33.375 C-10.88899317 34.15873488 -15.97329873 33.16352352 -21.375 29.375 C-26.45023386 24.03949774 -26.72487281 19.43525749 -26.65625 12.32421875 C-26.15260029 7.04289193 -23.60812174 4.48781718 -19.8125 1.0625 C-14.04090939 -2.93321658 -6.21602415 -2.99290052 0 0 Z M-10.375 8.375 C-10.375 13.325 -10.375 18.275 -10.375 23.375 C-9.715 23.375 -9.055 23.375 -8.375 23.375 C-8.375 18.425 -8.375 13.475 -8.375 8.375 C-9.035 8.375 -9.695 8.375 -10.375 8.375 Z M-18.375 11.375 C-18.375 14.015 -18.375 16.655 -18.375 19.375 C-17.385 19.375 -16.395 19.375 -15.375 19.375 C-15.375 16.735 -15.375 14.095 -15.375 11.375 C-16.365 11.375 -17.355 11.375 -18.375 11.375 Z M-3.375 11.375 C-3.375 14.015 -3.375 16.655 -3.375 19.375 C-2.385 19.375 -1.395 19.375 -0.375 19.375 C-0.375 16.735 -0.375 14.095 -0.375 11.375 C-1.365 11.375 -2.355 11.375 -3.375 11.375 Z " fill="#A7C954" transform="translate(26.375,6.625)"/>
<path d="M0 0 C0.78246094 -0.01417969 1.56492187 -0.02835937 2.37109375 -0.04296875 C4.5625 0.1875 4.5625 0.1875 7.5625 2.1875 C8.25 4.8125 8.25 4.8125 8.5625 7.1875 C10.5539056 7.56883299 12.55529077 7.90075582 14.5625 8.1875 C14.8925 7.8575 15.2225 7.5275 15.5625 7.1875 C18.25 6.6875 18.25 6.6875 21.5625 7.1875 C24.10681929 9.18580387 25.97258993 11.37008583 27.5625 14.1875 C27.49682023 17.14308955 26.86206862 18.58836276 25.5625 21.1875 C25.84192455 22.86404729 26.17078247 24.53358154 26.5625 26.1875 C27.531875 26.331875 28.50125 26.47625 29.5 26.625 C32.5625 27.1875 32.5625 27.1875 33.5625 28.1875 C33.5625 29.8375 33.5625 31.4875 33.5625 33.1875 C25.1475 33.6825 25.1475 33.6825 16.5625 34.1875 C15.86125 32.62 15.16 31.0525 14.4375 29.4375 C12.13910549 24.87933946 10.30060816 22.41719796 5.5625 20.1875 C2.89962666 19.35926453 0.3007648 18.75403754 -2.4375 18.1875 C-2.705625 16.970625 -2.97375 15.75375 -3.25 14.5 C-3.93547045 11.68361055 -4.58074223 9.95406821 -6.125 7.4375 C-7.4375 5.1875 -7.4375 5.1875 -7.25 2.9375 C-5.73828918 -0.31849253 -3.24063081 0.02660616 0 0 Z " fill="#7B2987" transform="translate(39.4375,3.8125)"/>
<path d="M0 0 C1.093125 0.33 2.18625 0.66 3.3125 1 C6.95121878 1.97118829 9.94587073 1.91905758 13.6875 1.625 C16.54296875 1.5546875 16.54296875 1.5546875 19 2 C20.62480115 3.86073118 21.48848866 5.72568391 22.54296875 7.953125 C25.38723902 11.94882908 30.4427089 12.7868507 35 14 C34.86722656 14.54527344 34.73445313 15.09054688 34.59765625 15.65234375 C33.32210753 21.09902987 32.53036157 26.43120352 32 32 C30.35 31.67 28.7 31.34 27 31 C26.34 29.02 25.68 27.04 25 25 C23.0085944 24.61866701 21.00720923 24.28674418 19 24 C18.67 24.33 18.34 24.66 18 25 C15.3125 25.5 15.3125 25.5 12 25 C9.4554573 23.00152066 7.59246629 20.81608928 6 18 C6.0625 15.25 6.0625 15.25 7 13 C8.04449911 9.86650268 7.93423645 9.01031744 7 6 C4.03 5.505 4.03 5.505 1 5 C0.67 3.35 0.34 1.7 0 0 Z " fill="#7B2987" transform="translate(6,40)"/>
<path d="M0 0 C4.0749848 -0.06338865 7.63482605 -0.07283367 10.93359375 2.51953125 C15 7.15152878 15 7.15152878 15 11 C13.05985937 10.77139428 11.12282586 10.51630819 9.1875 10.25 C8.10855469 10.11078125 7.02960937 9.9715625 5.91796875 9.828125 C3 9 3 9 1.125 7.09375 C-0.23402639 4.56445089 -0.23589769 2.83077232 0 0 Z " fill="#7B2987" transform="translate(37,25)"/>
<path d="M0 0 C3.80269854 -0.10490203 7.31857596 -0.01172948 11 1 C13.59165739 3.84145569 15 7.13741937 15 11 C9.69356959 11.50537432 7.13319688 10.30655751 3 7 C0.58363706 4.34200077 0 3.64705667 0 0 Z " fill="#7B2987" transform="translate(27,40)"/>
</svg>
