<?xml version="1.0" encoding="UTF-8"?>
<svg version="1.1" xmlns="http://www.w3.org/2000/svg" width="91" height="90">
<path d="M0 0 C1.2125219 0.00303635 1.2125219 0.00303635 2.44953918 0.00613403 C3.29663956 0.00438171 4.14373993 0.00262939 5.01651001 0.00082397 C7.83079547 -0.00359553 10.64501865 -0.00065621 13.45930481 0.00271606 C15.40604159 0.00204305 17.35277828 0.00107305 19.29951477 -0.00018311 C23.38517556 -0.00166021 27.47081452 0.00049489 31.55647278 0.00515747 C36.80601996 0.01085476 42.05551603 0.00757583 47.30506134 0.00158501 C51.32663868 -0.00202026 55.3482038 -0.00088218 59.36978149 0.0017128 C61.3059693 0.00238216 63.2421582 0.00155332 65.17834473 -0.00076675 C67.87945005 -0.00329272 70.5804714 0.00054652 73.28157043 0.00613403 C74.08991837 0.0041098 74.8982663 0.00208557 75.73110962 0 C81.25129233 0.02126609 81.25129233 0.02126609 82.36555481 1.13552856 C82.4586737 2.63971596 82.48301509 4.14824212 82.4790802 5.65530396 C82.47895935 6.62971436 82.4788385 7.60412476 82.47871399 8.60806274 C82.47359802 9.63935303 82.46848206 10.67064331 82.46321106 11.73318481 C82.46220398 12.67577148 82.4611969 13.61835815 82.4601593 14.58950806 C82.45490958 18.12569386 82.44094845 21.66186238 82.42805481 25.19802856 C82.40742981 33.09740356 82.38680481 40.99677856 82.36555481 49.13552856 C52.99555481 49.13552856 23.62555481 49.13552856 -6.63444519 49.13552856 C-6.65507019 41.23615356 -6.67569519 33.33677856 -6.69694519 25.19802856 C-6.70604919 22.70119507 -6.7151532 20.20436157 -6.72453308 17.63186646 C-6.72745209 15.66563979 -6.73000068 13.69941252 -6.73210144 11.73318481 C-6.73721741 10.70189453 -6.74233337 9.67060425 -6.74760437 8.60806274 C-6.74778564 7.14644714 -6.74778564 7.14644714 -6.74797058 5.65530396 C-6.75019119 4.80480972 -6.7524118 3.95431549 -6.75469971 3.07804871 C-6.49650816 -1.0926244 -3.47737853 0.01339634 0 0 Z M-2.63444519 6.13552856 C-2.7065003 7.82161822 -2.71830587 9.51053516 -2.69694519 11.19802856 C-2.68792175 12.11713013 -2.67889832 13.03623169 -2.66960144 13.98318481 C-2.65799988 14.69345825 -2.64639832 15.40373169 -2.63444519 16.13552856 C-2.30444519 16.13552856 -1.97444519 16.13552856 -1.63444519 16.13552856 C-1.30444519 13.16552856 -0.97444519 10.19552856 -0.63444519 7.13552856 C2.66555481 6.80552856 5.96555481 6.47552856 9.36555481 6.13552856 C9.36555481 5.80552856 9.36555481 5.47552856 9.36555481 5.13552856 C7.55313429 5.10865577 5.74060248 5.08919141 3.92805481 5.07302856 C2.4140509 5.05562622 2.4140509 5.05562622 0.86946106 5.03787231 C-1.57465586 4.84940181 -1.57465586 4.84940181 -2.63444519 6.13552856 Z M36.36555481 5.13552856 C35.08152398 9.62963647 35.46030346 10.37240018 37.36555481 15.13552856 C33.73555481 15.46552856 30.10555481 15.79552856 26.36555481 16.13552856 C26.03555481 14.81552856 25.70555481 13.49552856 25.36555481 12.13552856 C24.396679 10.12026688 23.40142271 8.1171889 22.36555481 6.13552856 C20.39018736 6.48339565 20.39018736 6.48339565 18.36555481 7.13552856 C18.03555481 7.79552856 17.70555481 8.45552856 17.36555481 9.13552856 C19.00028997 12.26027483 19.00028997 12.26027483 21.49055481 12.82302856 C22.10930481 12.92615356 22.72805481 13.02927856 23.36555481 13.13552856 C23.69555481 14.78552856 24.02555481 16.43552856 24.36555481 18.13552856 C28.73600149 18.22472135 32.85033602 18.21999066 37.17805481 17.51052856 C40.51119347 17.1183946 41.74415216 17.09665984 44.36555481 19.13552856 C46.47759705 21.85101144 46.36069374 23.20479878 46.11555481 26.69802856 C45.36555481 30.13552856 45.36555481 30.13552856 43.36555481 33.13552856 C38.11454999 34.24100326 33.6281902 34.1144877 28.34602356 33.29177856 C26.15425387 32.9893716 26.15425387 32.9893716 23.36555481 34.13552856 C24.02555481 34.13552856 24.68555481 34.13552856 25.36555481 34.13552856 C23.78196839 37.3027014 22.91291782 38.86821175 19.67805481 40.44802856 C18.91492981 40.67490356 18.15180481 40.90177856 17.36555481 41.13552856 C18.02555481 42.45552856 18.68555481 43.77552856 19.36555481 45.13552856 C21.32449842 45.0224616 21.32449842 45.0224616 23.36555481 44.13552856 C24.88479261 41.17701285 25.55469759 38.37895742 26.36555481 35.13552856 C29.99555481 35.46552856 33.62555481 35.79552856 37.36555481 36.13552856 C36.37555481 38.61052856 36.37555481 38.61052856 35.36555481 41.13552856 C35.66075249 43.86917177 35.66075249 43.86917177 36.36555481 46.13552856 C38.34555481 45.64052856 38.34555481 45.64052856 40.36555481 45.13552856 C39.7762647 42.10489369 39.11510918 39.13374607 38.36555481 36.13552856 C41.99555481 35.80552856 45.62555481 35.47552856 49.36555481 35.13552856 C49.86055481 36.62052856 49.86055481 36.62052856 50.36555481 38.13552856 C50.36555481 36.81552856 50.36555481 35.49552856 50.36555481 34.13552856 C51.66492981 33.79521606 51.66492981 33.79521606 52.99055481 33.44802856 C56.98334295 31.89527762 59.20803786 29.99232961 62.36555481 27.13552856 C62.01436308 24.30134966 61.58064257 23.31904767 59.36946106 21.43240356 C58.563797 20.92193481 57.75813293 20.41146606 56.92805481 19.88552856 C55.7234259 19.10435669 55.7234259 19.10435669 54.49446106 18.30740356 C52.47856112 16.97478615 52.47856112 16.97478615 50.36555481 17.13552856 C52.82709327 12.33552856 52.82709327 12.33552856 55.55305481 11.32302856 C56.15117981 11.26115356 56.74930481 11.19927856 57.36555481 11.13552856 C57.36555481 9.81552856 57.36555481 8.49552856 57.36555481 7.13552856 C56.04555481 6.80552856 54.72555481 6.47552856 53.36555481 6.13552856 C51.59298446 9.52653271 50.29967474 12.39904886 49.36555481 16.13552856 C43.92055481 15.64052856 43.92055481 15.64052856 38.36555481 15.13552856 C39.02555481 13.48552856 39.68555481 11.83552856 40.36555481 10.13552856 C40.07035713 7.40188536 40.07035713 7.40188536 39.36555481 5.13552856 C38.37555481 5.13552856 37.38555481 5.13552856 36.36555481 5.13552856 Z M29.36555481 19.13552856 C30.36555481 21.13552856 30.36555481 21.13552856 30.36555481 21.13552856 Z M28.36555481 21.13552856 C29.36555481 23.13552856 29.36555481 23.13552856 29.36555481 23.13552856 Z M27.36555481 23.13552856 C27.36555481 24.78552856 27.36555481 26.43552856 27.36555481 28.13552856 C27.69555481 28.13552856 28.02555481 28.13552856 28.36555481 28.13552856 C28.36555481 26.48552856 28.36555481 24.83552856 28.36555481 23.13552856 C28.03555481 23.13552856 27.70555481 23.13552856 27.36555481 23.13552856 Z M33.36555481 23.13552856 C34.36555481 25.13552856 34.36555481 25.13552856 34.36555481 25.13552856 Z M13.36555481 24.13552856 C14.36555481 27.13552856 14.36555481 27.13552856 14.36555481 27.13552856 Z M41.36555481 26.13552856 C40.70555481 27.45552856 40.04555481 28.77552856 39.36555481 30.13552856 C40.35555481 29.80552856 41.34555481 29.47552856 42.36555481 29.13552856 C42.03555481 28.14552856 41.70555481 27.15552856 41.36555481 26.13552856 Z M33.36555481 27.13552856 C33.69555481 28.12552856 34.02555481 29.11552856 34.36555481 30.13552856 C35.02555481 29.80552856 35.68555481 29.47552856 36.36555481 29.13552856 C35.37555481 28.47552856 34.38555481 27.81552856 33.36555481 27.13552856 Z M28.36555481 28.13552856 C29.36555481 30.13552856 29.36555481 30.13552856 29.36555481 30.13552856 Z M16.36555481 29.13552856 C16.69555481 29.79552856 17.02555481 30.45552856 17.36555481 31.13552856 C18.02555481 30.80552856 18.68555481 30.47552856 19.36555481 30.13552856 C18.37555481 29.80552856 17.38555481 29.47552856 16.36555481 29.13552856 Z M52.36555481 40.13552856 C52.69555481 41.78552856 53.02555481 43.43552856 53.36555481 45.13552856 C55.34092226 44.78766148 55.34092226 44.78766148 57.36555481 44.13552856 C57.69555481 43.47552856 58.02555481 42.81552856 58.36555481 42.13552856 C57.38705286 41.11448305 56.38575054 40.11491647 55.36555481 39.13552856 C54.14194801 39.06099297 54.14194801 39.06099297 52.36555481 40.13552856 Z M77.36555481 33.13552856 C77.36555481 36.43552856 77.36555481 39.73552856 77.36555481 43.13552856 C73.73555481 43.13552856 70.10555481 43.13552856 66.36555481 43.13552856 C66.36555481 43.46552856 66.36555481 43.79552856 66.36555481 44.13552856 C70.32555481 44.13552856 74.28555481 44.13552856 78.36555481 44.13552856 C78.36555481 40.50552856 78.36555481 36.87552856 78.36555481 33.13552856 C78.03555481 33.13552856 77.70555481 33.13552856 77.36555481 33.13552856 Z " fill="#7B2987" transform="translate(7.6344451904296875,7.864471435546875)"/>
<path d="M0 0 C29.37 0 58.74 0 89 0 C89 2.64 89 5.28 89 8 C59.63 8 30.26 8 0 8 C0 5.36 0 2.72 0 0 Z M41 4 C41 4.33 41 4.66 41 5 C43.31 5 45.62 5 48 5 C48 4.67 48 4.34 48 4 C45.69 4 43.38 4 41 4 Z " fill="#A7C954" transform="translate(1,58)"/>
<path d="M0 0 C14.85 0 29.7 0 45 0 C45 1.98 45 3.96 45 6 C30.15 6 15.3 6 0 6 C0 4.02 0 2.04 0 0 Z " fill="#A7C954" transform="translate(23,74)"/>
<path d="M0 0 C7.18404854 0.26123813 11.32206314 2.70211724 17 7 C16.62305374 9.48996898 16.30948842 10.71366532 14.43359375 12.44921875 C9.51620689 15.49973075 5.78754802 16.68995278 0 17 C0.515625 16.154375 1.03125 15.30875 1.5625 14.4375 C3.27559176 10.34097622 3.02794333 8.26991846 2 4 C1.04415562 1.66411677 1.04415562 1.66411677 0 0 Z " fill="#7B2987" transform="translate(52,25)"/>
<path d="M0 0 C4.95 0 9.9 0 15 0 C15 1.98 15 3.96 15 6 C10.05 6 5.1 6 0 6 C0 4.02 0 2.04 0 0 Z " fill="#A7CA54" transform="translate(38,67)"/>
</svg>
