<?xml version="1.0" encoding="UTF-8"?>
<svg version="1.1" xmlns="http://www.w3.org/2000/svg" width="101" height="100">
<path d="M0 0 C4.55555556 0.55555556 4.55555556 0.55555556 6 2 C6.47274656 6.25471906 5.39014869 8.51436649 3 12 C4.5778125 11.9071875 4.5778125 11.9071875 6.1875 11.8125 C10.26146259 12.01285882 11.86408495 12.47384621 15 15 C18 20 18 20 18 33 C7.44 33 -3.12 33 -14 33 C-14 18.11111111 -14 18.11111111 -10 14 C-6.78542734 11.64264672 -3.90339153 11.82257311 0 12 C-0.495 10.9171875 -0.495 10.9171875 -1 9.8125 C-2.02083172 6.94141078 -2.32596895 5.01521279 -2 2 C-1.34 1.34 -0.68 0.68 0 0 Z M-8 18 C-8.33 18.99 -8.66 19.98 -9 21 C-7.02 21.99 -7.02 21.99 -5 23 C-4.34 21.68 -3.68 20.36 -3 19 C-4.65 18.67 -6.3 18.34 -8 18 Z M8 18 C8.33 19.65 8.66 21.3 9 23 C10.32 22.34 11.64 21.68 13 21 C12.67 20.01 12.34 19.02 12 18 C10.68 18 9.36 18 8 18 Z M-3 28 C-3 28.33 -3 28.66 -3 29 C0.3 29 3.6 29 7 29 C7 28.67 7 28.34 7 28 C3.7 28 0.4 28 -3 28 Z " fill="#7B2987" transform="translate(34,15)"/>
<path d="M0 0 C1.65 0 3.3 0 5 0 C5.33 0.99 5.66 1.98 6 3 C7.81656815 3.93391003 7.81656815 3.93391003 10 4 C12.21771064 3.14209817 12.21771064 3.14209817 14 2 C16 4 16 4 16.1953125 5.9453125 C16.13020833 7.96354167 16.06510417 9.98177083 16 12 C18.475 12.495 18.475 12.495 21 13 C20.625 15.4375 20.625 15.4375 20 18 C19.01 18.495 19.01 18.495 18 19 C17.84850702 22.62885324 17.84850702 22.62885324 19 26 C17.75 27.5625 17.75 27.5625 16 29 C13.9375 28.625 13.9375 28.625 12 28 C9.2160817 29.39195915 9.02101003 31.15575779 8 34 C6.68 34 5.36 34 4 34 C3.67 33.01 3.34 32.02 3 31 C-0.37817425 30.15545644 -2.67465243 29.89155081 -6 31 C-6.77321882 28.01758453 -7.41196203 25.02419525 -8 22 C-9.32 21.67 -10.64 21.34 -12 21 C-12.33 19.68 -12.66 18.36 -13 17 C-11.68 16.34 -10.36 15.68 -9 15 C-9 14.2575 -9 13.515 -9 12.75 C-9 10.5 -9 8.25 -9 6 C-5.8035914 4.93453047 -3.34252724 4.92572162 0 5 C0 3.35 0 1.7 0 0 Z M-2 11 C-4.34549674 14.51824511 -4.57991403 15.85775694 -4 20 C-1.39210172 23.63525215 0.0702358 24.83397068 4.5 25.625 C8.9297642 24.83397068 10.39210172 23.63525215 13 20 C13.71869773 16.16694546 13.32531424 14.56304388 11.375 11.1875 C6.75878263 6.93572084 2.82249416 7.24917121 -2 11 Z " fill="#7B2987" transform="translate(57,64)"/>
<path d="M0 0 C0.99 0 1.98 0 3 0 C3.33 1.32 3.66 2.64 4 4 C7.465 3.505 7.465 3.505 11 3 C12 6 12 6 12 10 C12.99 10.33 13.98 10.66 15 11 C15 12.32 15 13.64 15 15 C14.01 15 13.02 15 12 15 C12.33 17.31 12.66 19.62 13 22 C10.10765685 22.82638376 8.11257569 23 5 23 C4.67 24.32 4.34 25.64 4 27 C3.01 27 2.02 27 1 27 C0.67 25.68 0.34 24.36 0 23 C-2.31 23.33 -4.62 23.66 -7 24 C-7.33 23.34 -7.66 22.68 -8 22 C-7.67 21.01 -7.34 20.02 -7 19 C-7.33 18.34 -7.66 17.68 -8 17 C-8.99 16.67 -9.98 16.34 -11 16 C-11 14.68 -11 13.36 -11 12 C-10.01 11.67 -9.02 11.34 -8 11 C-8 8.69 -8 6.38 -8 4 C-4.535 3.505 -4.535 3.505 -1 3 C-0.67 2.01 -0.34 1.02 0 0 Z M-4 9 C-5.07178976 12.68427731 -5.54046044 14.85902796 -3.875 18.375 C-1.49279641 20.43957645 -0.15490049 20.92488332 3 21 C5.2831838 19.8584081 7.19012683 18.80987317 9 17 C9.452835 12.34203151 9.452835 12.34203151 7.8125 8.125 C3.29948847 5.32382043 0.01636352 5.42989909 -4 9 Z " fill="#7B2987" transform="translate(84,44)"/>
<path d="M0 0 C11.64898921 -0.7435525 21.8580334 1.1828146 30.9609375 8.87890625 C39.58226756 17.84707142 42.49343282 27.19550596 42.32421875 39.41796875 C41.68385703 46.49280848 39.10867942 53.19403235 35 59 C34.01 59 33.02 59 32 59 C32.63433183 56.04639243 33.59951825 53.60974276 35 50.9375 C39.00325443 43.26950162 39.16950948 34.5197868 37.38671875 26.10546875 C34.49124318 18.00579041 28.95931174 11.35725525 21.5 7.0625 C14.75146923 3.99498601 7.30320334 3.6070901 0 3 C0 2.01 0 1.02 0 0 Z " fill="#A7C954" transform="translate(30,1)"/>
<path d="M0 0 C-0.79353795 3.70317711 -2.29674472 6.67622536 -4.0625 10 C-7.36941794 17.05475827 -7.01033346 26.44132673 -5.3515625 33.92578125 C-2.26889247 42.39653694 2.81965072 48.1076117 10.6875 52.4375 C15.95337446 54.88828434 20.62623548 55.73138568 26.40625 55.89453125 C28.7679619 55.99056472 30.74194821 56.33430077 33 57 C33 57.66 33 58.32 33 59 C20.53157362 59.55690242 11.65038645 59.18073943 1.6875 50.8125 C-4.96794138 44.4600536 -9.44030602 36.79868996 -10.3359375 27.51953125 C-10.4388206 17.75592516 -9.35044891 10.02567336 -3.875 1.8125 C-2 0 -2 0 0 0 Z " fill="#A7C954" transform="translate(10,14)"/>
<path d="M0 0 C0 0.66 0 1.32 0 2 C-5.67741935 1.09677419 -5.67741935 1.09677419 -7.875 0.4375 C-15.3604551 -1.10362311 -21.3457506 0.45489127 -28 4 C-30.93973281 6.35418376 -30.93973281 6.35418376 -33 9 C-33.8353125 9.9590625 -33.8353125 9.9590625 -34.6875 10.9375 C-39.53087087 18.54851137 -38.48060955 27.48649511 -37 36 C-37.99 36 -38.98 36 -40 36 C-42.99639442 27.38536603 -43.03948453 19.71507337 -39.25 11.3203125 C-35.21802537 3.8359596 -29.91176515 0.03430613 -22 -3 C-14.50518412 -4.96857506 -6.58491543 -4.0933258 0 0 Z " fill="#A7C954" transform="translate(50,13)"/>
<path d="M0 0 C0.99 0.33 1.98 0.66 3 1 C5.79948353 8.07237945 6.00360927 14.88179938 3.4375 22.0625 C0.08882149 29.6175887 -4.62916995 34.9306098 -12.203125 38.30859375 C-18.79351125 40.84445976 -26.65592876 41.3646375 -33.25 38.5 C-34.1575 38.005 -35.065 37.51 -36 37 C-36 36.01 -36 35.02 -36 34 C-35.0925 34.33 -34.185 34.66 -33.25 35 C-25.97788231 37.01268712 -18.56748178 37.10998053 -11.625 34 C-5.73820627 30.65910259 -2.5018624 26.14025774 0.375 20.125 C1.71939433 13.40302837 1.16694619 6.70994058 0 0 Z " fill="#A7C954" transform="translate(59,25)"/>
<path d="M0 0 C2.5 2.125 2.5 2.125 4 5 C4 8.50732933 3.6345092 10.2434698 1.375 12.9375 C-2.11319754 14.49800943 -4.36432898 13.99154664 -8 13 C-10 11.3125 -10 11.3125 -11 9 C-10.87304813 5.88967921 -10.47953174 3.79921957 -8.875 1.125 C-5.79484632 -0.72309221 -3.49557617 -0.49060718 0 0 Z " fill="#7B2987" transform="translate(65,74)"/>
<path d="M0 0 C3.0625 0.3125 3.0625 0.3125 4.9375 1.5 C6.46909584 3.96757108 6.49072025 5.45769831 6.0625 8.3125 C4.9375 10.125 4.9375 10.125 3.0625 11.3125 C0.0625 11.75 0.0625 11.75 -2.9375 11.3125 C-4.875 9.625 -4.875 9.625 -5.9375 7.3125 C-5.61764525 2.8345335 -4.76027546 0.50641228 0 0 Z " fill="#7B2987" transform="translate(85.9375,51.6875)"/>
<path d="M0 0 C1.32 0.33 2.64 0.66 4 1 C4.625 3.375 4.625 3.375 5 6 C4.34 6.66 3.68 7.32 3 8 C2.01 8 1.02 8 0 8 C0 5.36 0 2.72 0 0 Z " fill="#7B2987" transform="translate(53,37)"/>
<path d="M0 0 C0.99 0 1.98 0 3 0 C3 2.64 3 5.28 3 8 C1.68 7.67 0.36 7.34 -1 7 C-1.625 4.625 -1.625 4.625 -2 2 C-1.34 1.34 -0.68 0.68 0 0 Z " fill="#7B2987" transform="translate(16,37)"/>
</svg>
