<svg width="32" height="33" viewBox="0 0 32 33" fill="none" xmlns="http://www.w3.org/2000/svg">
<path fill-rule="evenodd" clip-rule="evenodd" d="M6 2.72C4.93913 2.72 3.92172 3.14143 3.17157 3.89157C2.42143 4.64172 2 5.65913 2 6.72V26.72C2 27.7809 2.42143 28.7983 3.17157 29.5484C3.92172 30.2986 4.93913 30.72 6 30.72H26C27.0609 30.72 28.0783 30.2986 28.8284 29.5484C29.5786 28.7983 30 27.7809 30 26.72V6.72C30 5.65913 29.5786 4.64172 28.8284 3.89157C28.0783 3.14143 27.0609 2.72 26 2.72H6ZM8.204 11.314C8.83787 11.314 9.44577 11.0622 9.89398 10.614C10.3422 10.1658 10.594 9.55787 10.594 8.924C10.594 8.29013 10.3422 7.68223 9.89398 7.23401C9.44577 6.7858 8.83787 6.534 8.204 6.534C7.57013 6.534 6.96223 6.7858 6.51401 7.23401C6.0658 7.68223 5.814 8.29013 5.814 8.924C5.814 9.55787 6.0658 10.1658 6.51401 10.614C6.96223 11.0622 7.57013 11.314 8.204 11.314ZM10.204 26.346V13.188H6.204V26.346H10.204ZM12.86 13.188H16.86V14.95C17.45 14.026 18.746 12.782 21.156 12.782C24.032 12.782 25.594 14.688 25.594 18.314C25.594 18.488 25.61 19.282 25.61 19.282V26.344H21.61V19.284C21.61 18.314 21.406 16.408 19.25 16.408C17.092 16.408 16.91 18.804 16.86 20.372V26.344H12.86V13.188Z" fill="#490852"/>
</svg>
