<?xml version="1.0" standalone="no"?>
<!DOCTYPE svg PUBLIC "-//W3C//DTD SVG 20010904//EN"
 "http://www.w3.org/TR/2001/REC-SVG-20010904/DTD/svg10.dtd">
<svg version="1.0" xmlns="http://www.w3.org/2000/svg"
 width="321.000000pt" height="255.000000pt" viewBox="0 0 321.000000 255.000000"
 preserveAspectRatio="xMidYMid meet">

<g transform="translate(0.000000,255.000000) scale(0.100000,-0.100000)"
fill="#000000" stroke="none">
<path d="M1280 1614 c-157 -90 -285 -170 -285 -177 0 -13 411 -256 435 -257 8
0 110 55 226 121 l212 122 7 76 c3 42 9 85 11 97 4 17 -16 32 -138 102 -79 45
-152 82 -163 82 -11 0 -148 -75 -305 -166z m433 85 c67 -39 126 -74 130 -79 5
-4 -24 -27 -64 -51 -40 -24 -73 -48 -73 -54 0 -5 27 -26 59 -46 33 -20 59 -40
59 -44 -1 -5 -71 -49 -155 -98 -85 -48 -172 -99 -195 -112 l-41 -24 -203 118
c-112 64 -205 121 -207 127 -2 7 550 334 564 334 2 0 58 -32 126 -71z m143
-146 c-3 -21 -6 -53 -6 -70 0 -20 -5 -33 -12 -32 -19 1 -103 54 -103 64 0 9
103 74 119 75 5 0 6 -17 2 -37z"/>
<path d="M1506 1621 c19 -18 124 -73 124 -64 0 10 -103 73 -121 73 -8 0 -9 -3
-3 -9z"/>
<path d="M1424 1581 c9 -14 258 -153 264 -147 7 8 16 2 -128 84 -122 70 -147
81 -136 63z"/>
<path d="M1365 1522 c102 -62 236 -133 244 -130 13 4 -236 148 -257 148 -11 0
-6 -7 13 -18z"/>
<path d="M1275 1491 c6 -11 248 -151 259 -151 19 0 -15 24 -127 89 -122 70
-144 80 -132 62z"/>
<path d="M1191 1446 c21 -18 254 -146 262 -143 13 4 -232 147 -252 147 -8 0
-12 -2 -10 -4z"/>
</g>
</svg>
