<svg width="100" height="97" viewBox="0 0 100 97" fill="none" xmlns="http://www.w3.org/2000/svg">
<path d="M30.2703 0H4.57568V25.6718H30.2705L30.2703 0ZM9.0856 6.43613C8.01874 6.43613 7.15386 5.57202 7.15386 4.5061C7.15386 3.44019 8.01874 2.57608 9.0856 2.57608C10.1525 2.57608 11.0174 3.44019 11.0174 4.5061C11.0175 5.57202 10.1527 6.43613 9.0856 6.43613Z" fill="#7C2A88"/>
<path d="M0.793651 33.6608H99.2064C99.6446 33.6608 100 33.3058 100 32.8679C100 32.43 99.6446 32.075 99.2064 32.075H0.793651C0.355357 32.075 0 32.43 0 32.8679C0 33.3058 0.355357 33.6608 0.793651 33.6608Z" fill="#A8CA55"/>
<path d="M62.8472 0H37.1523V25.6718H62.8472V0ZM41.6625 6.43613C40.5956 6.43613 39.7307 5.57202 39.7307 4.5061C39.7307 3.44019 40.5956 2.57608 41.6625 2.57608C42.7293 2.57608 43.5942 3.44019 43.5942 4.5061C43.5942 5.57202 42.7293 6.43613 41.6625 6.43613Z" fill="#7C2A88"/>
<path d="M95.4241 0H69.7295V25.6718H95.4243V0H95.4241ZM74.2394 6.43613C73.1725 6.43613 72.3077 5.57202 72.3077 4.5061C72.3077 3.44019 73.1725 2.57608 74.2394 2.57608C75.3063 2.57608 76.1714 3.44019 76.1714 4.5061C76.1714 5.57202 75.3063 6.43613 74.2394 6.43613Z" fill="#7C2A88"/>
<path d="M30.2703 64.637V38.9651H4.57568V64.637H30.2703ZM9.0856 41.541C10.1525 41.541 11.0174 42.4051 11.0174 43.471C11.0174 44.5369 10.1525 45.4012 9.0856 45.4012C8.01874 45.4012 7.15386 44.5371 7.15386 43.471C7.15386 42.4051 8.01874 41.541 9.0856 41.541Z" fill="#7C2A88"/>
<path d="M99.2064 71.0398H0.793651C0.355357 71.0398 0 71.3948 0 71.8327C0 72.2706 0.355357 72.6257 0.793651 72.6257H99.2064C99.6446 72.6257 100 72.2706 100 71.8327C100 71.3948 99.6446 71.0398 99.2064 71.0398Z" fill="#A8CA55"/>
<path d="M62.8472 64.637V38.9651H37.1523V64.637H62.8472ZM41.6625 41.541C42.7293 41.541 43.5942 42.4051 43.5942 43.471C43.5942 44.5369 42.7293 45.4012 41.6625 45.4012C40.5956 45.4012 39.7307 44.5371 39.7307 43.471C39.7305 42.4051 40.5954 41.541 41.6625 41.541Z" fill="#7C2A88"/>
<path d="M95.4241 64.637V38.9651H69.7295V64.637H95.4241ZM74.2394 41.541C75.3063 41.541 76.1714 42.4051 76.1714 43.471C76.1714 44.5369 75.3065 45.4012 74.2394 45.4012C73.1725 45.4012 72.3077 44.5371 72.3077 43.471C72.3077 42.4051 73.1725 41.541 74.2394 41.541Z" fill="#7C2A88"/>
<path d="M20.7568 96.7392H26.5205L27.5781 90.7598H22.0937L20.7568 96.7392Z" fill="#7C2A88"/>
<path d="M22.1589 83.1945H17.0031L14.9458 89.1738H20.8218L22.1589 83.1945Z" fill="#7C2A88"/>
<path d="M12.3433 96.7392H19.1308L20.4677 90.7598H14.4006L12.3433 96.7392Z" fill="#7C2A88"/>
<path d="M23.7851 83.1945L22.4482 89.1738H27.8584L28.9159 83.1945H23.7851Z" fill="#7C2A88"/>
<path d="M79.5327 90.7598L80.8698 96.7392H87.6571L85.5998 90.7598H79.5327Z" fill="#7C2A88"/>
<path d="M69.4717 83.1945H64.3003L64.8866 89.1738H70.5295L69.4717 83.1945Z" fill="#7C2A88"/>
<path d="M65.042 90.7598L65.6283 96.7392H71.8674L70.8098 90.7598H65.042Z" fill="#7C2A88"/>
<path d="M62.7054 83.1945H57.5586L57.9421 89.1738H63.2917L62.7054 83.1945Z" fill="#7C2A88"/>
<path d="M76.2147 83.1945H71.084L72.1417 89.1738H77.5516L76.2147 83.1945Z" fill="#7C2A88"/>
<path d="M28.1323 96.7392H34.3714L34.9577 90.7598H29.1899L28.1323 96.7392Z" fill="#7C2A88"/>
<path d="M13.2729 78.771L5.42725 96.7391H10.6643L15.6864 82.1436C15.7965 81.8234 16.0979 81.6086 16.4368 81.6086H83.5626C83.9015 81.6086 84.203 81.8234 84.313 82.1436L89.3354 96.7391H94.5725L86.7269 78.771H13.2729Z" fill="#A8CA55"/>
<path d="M72.4219 90.7598L73.4794 96.7392H79.2431L77.906 90.7598H72.4219Z" fill="#7C2A88"/>
<path d="M85.0539 89.1738L82.9966 83.1945H77.8408L79.1779 89.1738H85.0539Z" fill="#7C2A88"/>
<path d="M58.0439 90.7598L58.4275 96.7392H64.0338L63.4475 90.7598H58.0439Z" fill="#7C2A88"/>
<path d="M50.7935 83.1945V89.1738H56.3512L55.9679 83.1945H50.7935Z" fill="#7C2A88"/>
<path d="M36.708 89.1738H42.0576L42.4411 83.1945H37.2943L36.708 89.1738Z" fill="#7C2A88"/>
<path d="M29.4702 89.1738H35.1131L35.6994 83.1945H30.528L29.4702 89.1738Z" fill="#7C2A88"/>
<path d="M35.9663 96.7392H41.5727L41.9562 90.7598H36.5526L35.9663 96.7392Z" fill="#7C2A88"/>
<path d="M50.7935 90.7598V96.7392H56.8365L56.453 90.7598H50.7935Z" fill="#7C2A88"/>
<path d="M43.1631 96.7392H49.2061V90.7598H43.5466L43.1631 96.7392Z" fill="#7C2A88"/>
<path d="M43.6484 89.1738H49.2062V83.1945H44.0318L43.6484 89.1738Z" fill="#7C2A88"/>
</svg>
