<svg width="48" height="48" viewBox="0 0 48 48" fill="none" xmlns="http://www.w3.org/2000/svg">
<rect x="0.5" y="0.5" width="47" height="47" rx="23.5" stroke="#7C2A88"/>
<path d="M32.5 29.28C32.8852 29.2802 33.2556 29.4286 33.5344 29.6944C33.8132 29.9602 33.979 30.3231 33.9975 30.7079C34.016 31.0927 33.8858 31.4698 33.6338 31.7612C33.3818 32.0526 33.0274 32.2358 32.644 32.273L32.5 32.28H16.5C16.1148 32.2798 15.7444 32.1314 15.4656 31.8656C15.1868 31.5998 15.021 31.2369 15.0025 30.8521C14.984 30.4673 15.1142 30.0902 15.3662 29.7988C15.6182 29.5074 15.9726 29.3242 16.356 29.287L16.5 29.28H32.5ZM32.5 22.28C32.8978 22.28 33.2794 22.438 33.5607 22.7193C33.842 23.0006 34 23.3822 34 23.78C34 24.1778 33.842 24.5594 33.5607 24.8407C33.2794 25.122 32.8978 25.28 32.5 25.28H16.5C16.1022 25.28 15.7206 25.122 15.4393 24.8407C15.158 24.5594 15 24.1778 15 23.78C15 23.3822 15.158 23.0006 15.4393 22.7193C15.7206 22.438 16.1022 22.28 16.5 22.28H32.5ZM32.5 15.28C32.8978 15.28 33.2794 15.438 33.5607 15.7193C33.842 16.0006 34 16.3822 34 16.78C34 17.1778 33.842 17.5594 33.5607 17.8407C33.2794 18.122 32.8978 18.28 32.5 18.28H16.5C16.1022 18.28 15.7206 18.122 15.4393 17.8407C15.158 17.5594 15 17.1778 15 16.78C15 16.3822 15.158 16.0006 15.4393 15.7193C15.7206 15.438 16.1022 15.28 16.5 15.28H32.5Z" fill="#490852"/>
</svg>
